<?xml version="1.0" encoding="utf-8"?>
<!-- Generator: Adobe Illustrator 28.1.0, SVG Export Plug-In . SVG Version: 6.00 Build 0)  -->
<svg version="1.1" id="layer1" xmlns="http://www.w3.org/2000/svg" xmlns:xlink="http://www.w3.org/1999/xlink" x="0px" y="0px"
	 viewBox="0 0 400 43.3" style="enable-background:new 0 0 400 43.3;" xml:space="preserve">
<style type="text/css">
	.st0{fill:url(#SVGID_1_);}
	.st1{fill:url(#SVGID_00000039837722710143115300000013466007023123546284_);}
</style>
<g>
	<image style="overflow:visible;" width="401" height="27" xlink:href="2DFEB58A.png"  transform="matrix(1 0 0 1 0 14)">
	</image>
	
		<image style="overflow:visible;opacity:0.23;" width="91" height="16" xlink:href="2DFEB58D.png"  transform="matrix(1 0 0 1 139 6)">
	</image>
</g>
<g>
	<linearGradient id="SVGID_1_" gradientUnits="userSpaceOnUse" x1="0.3972" y1="31.8526" x2="0.2773" y2="37.8564">
		<stop  offset="0" style="stop-color:#E9E6DF"/>
		<stop  offset="5.464003e-02" style="stop-color:#F1EFEB"/>
		<stop  offset="0.1462" style="stop-color:#F9F8F6"/>
		<stop  offset="0.2752" style="stop-color:#FEFEFD"/>
		<stop  offset="0.6333" style="stop-color:#FFFFFF"/>
	</linearGradient>
	<path class="st0" d="M0.3,32l0.3,0.5C0.3,32,0.3,31.9,0.3,32z"/>
	
		<linearGradient id="SVGID_00000139286892240806495150000005028478723502816941_" gradientUnits="userSpaceOnUse" x1="200.968" y1="-15.0226" x2="190.7532" y2="496.6259">
		<stop  offset="0" style="stop-color:#E9E6DF"/>
		<stop  offset="5.464003e-02" style="stop-color:#F1EFEB"/>
		<stop  offset="0.1462" style="stop-color:#F9F8F6"/>
		<stop  offset="0.2752" style="stop-color:#FEFEFD"/>
		<stop  offset="0.6333" style="stop-color:#FFFFFF"/>
	</linearGradient>
	<path style="fill:url(#SVGID_00000139286892240806495150000005028478723502816941_);" d="M400.3,24.6L400.3,24.6l0-0.7v-6.1v-3.7
		c0,0,0,0,0,0V0H0.5v14c-0.1,0-0.3,0-0.3,0v3.7v6.1v3.2L1,28.3l0.9-1.1v1.1l1.1,1.3v-0.4l0,0v-0.8h1.5c0,0,1.8-0.2,1.9,0
		c0.1,0.2,0.1,0.2,0.1,0.2l0.9-0.2v1.2h1.3v1.1l0.9-0.9c0,0,0.8-0.3,1.1,0c0.3,0.3,1,0.9,1,0.9h0.8l1.6-0.9v0.9c0,0,1,0.4,1.5,0
		c0.5-0.4,1.3-0.8,1.3-0.8l1.2-0.9v1c0,0,0.4-0.9,0.8-0.2c0.3,0.7,0.3,0.7,0.3,0.7l1.2-1.5h1v1l1.2-1l0.5,0.5l0.1-0.2l0.1-0.2H24
		c0,0,0.5-0.2,0.6-0.2c0.1,0,0.2-0.3,0.2-0.3l0.2,0.1v-0.4l0,0v-0.1c0.1,0.1,0.4,0.4,0.4,0.3v-0.4c0,0,0,0,0,0v-0.3
		c0,0.2,0.1,0.4,0.2,0.5c0-0.1-0.2-0.6-0.1-0.6c0,0.1,0.1,0.2,0.1,0.2c0,0,0-0.1,0-0.2c0,0,0,0,0,0c0.2,0.2,0.4,0.5,0.4,0.5
		s0.1-0.4,0.2-0.2c0.1,0.2,0.1,0.2,0.1,0.2s0.2-0.2,0.3-0.1c0.1,0.2,0.2,0.4,0.2,0.4s0.2-0.4,0.4-0.2c0.2,0.3,0.3,0.6,0.3,0.6
		s0.3-0.7,0.5-0.5c0.1,0.1,0.1,0.1,0.1,0.1s0.3-0.3,0.5-0.1c0.2,0.2,0.2,0.2,0.2,0.2s0.3-0.6,0.4-0.3c0.1,0.3,0.1,0.7,0.2,0.5
		c0.1-0.2,0.3-0.9,0.5-0.5c0.2,0.4,0.2,0.4,0.2,0.4s0.2-0.3,0.4-0.1c0.1,0.1,0.1,0.1,0.1,0.1s0.5,0.2,0.6,0.1
		c0.1-0.1,0.6-0.4,0.6-0.4v0.3c0,0,0.1-0.6,0.3-0.2c0.3,0.4,0.3,0.4,0.3,0.4s0.2-0.3,0.2-0.3c0,0,0.1,0,0.1,0.1c0,0,0-0.1,0.1-0.1
		c0.3,0,0.8-0.3,0.8-0.1c0.1,0.2,0.4,0.1,0.4,0.1c0.3,0.3,0.3-0.1,0.5,0c0.1,0.1,0.4-0.3,0.5-0.1c0.1,0.2,0.1-0.6,0.4-0.2
		c0.2,0.4,0.4-0.5,0.6-0.1c0.1,0.4,0.3-0.6,0.5-0.1c0.2,0.5,0.3-0.2,0.6,0.2c0.3,0.4,0.4-0.4,0.6,0c0.2,0.4,0.2-0.7,0.5-0.3
		c0.3,0.4,0.3-0.5,0.5,0c0.3,0.5,0.2-0.1,0.5,0.3c0.3,0.4,0.3-0.6,0.6-0.1c0.3,0.5,0.2-0.4,0.5,0c0.3,0.4,0.1-0.7,0.3-0.4
		c0.2,0.2,0.1-0.2,0.1-0.4c0,0,0-0.1,0-0.2c0,0,0,0,0.1,0c0.3,0.3,0.2-0.4,0.4-0.3c0.1,0.1,0.1,0.1,0.1,0.1s-0.1-0.3-0.1-0.5
		c0,0,0,0,0,0c0.1,0.1,0.1,0.1,0.1,0.1s0-0.1-0.1-0.3c0,0,0,0,0,0c0.2,0.2,0.5-0.1,0.5,0c0,0,0-0.2,0-0.4c0,0,0,0,0,0c0,0,0,0,0-0.1
		c0-0.2,0.1-0.4,0.3-0.1c0.4,0.6,0.5,0.1,0.7,0.5c0.1,0.4,0.2-0.4,0.3,0c0,0,0.3,0.3,0.5,0.6c0.3,0.4,0.9,0.2,0.9,0.4
		c0.1,0.2,0.5-0.2,0.5-0.2c0.1,0.1,0.2-0.6,0.5-0.2c0.3,0.4,0.4-0.2,0.6,0c0.2,0.2,0.3-0.2,0.5,0c0.2,0.2,0.2-0.9,0.6,0
		c0.3,0.9,0.6,0,0.7,0.3c0.1,0.3,0.2-1,0.6-0.3c0.3,0.8,0.5,0.2,0.8,0.5c0.3,0.2,0.5-0.4,0.7-0.1c0.2,0.3,0.2-0.7,0.5-0.4
		c0.3,0.2,0.2-0.5,0.5-0.2c0.2,0.3,0.2-0.5,0.5-0.1c0.3,0.4,0.4-0.1,0.5,0.3c0.1,0.4,0.2-0.8,0.4,0c0.1,0.8,0.2,0.4,0.3,0.7
		c0.1,0.3,0.3-0.4,0.5-0.1c0.1,0.3,0.3-0.2,0.5,0c0.1,0.2,0.2-0.2,0.3-0.2c0.1,0,0-0.1,0-0.2c0,0,0,0.1,0.1,0.2
		c0.2,0.6,0,0.3,0.2,0.6c0.2,0.3,0.2-0.1,0.4,0.2c0.1,0.2,0.3-0.3,0.5,0c0.2,0.3,0.5,0.3,0.6,0.4c0.1,0.1,0.4-0.9,0.7-0.4
		c0.3,0.4,0.4-0.2,0.6,0c0.2,0.2,0.1-0.7,0.5-0.2c0.4,0.5,0.4-0.2,0.6,0.2c0.2,0.4,0.1-0.4,0.4,0c0.3,0.4,0.5-0.1,0.6,0.2
		c0.2,0.3,0.2,0,0.5,0.3c0.2,0.3,0.3-0.4,0.6-0.1c0.3,0.4,0.4,0,0.7,0.2c0.3,0.3,0.2-0.5,0.6-0.1c0.4,0.4,0.5-0.2,0.6,0.1
		c0.1,0.3,0.2,0.7,0.3,0.8c0.1,0.1,0.2-0.3,0.4,0c0.2,0.4,0.1-0.1,0.4,0.1c0.3,0.2,0.6-0.7,0.9-0.3c0.2,0.4,0.2,0,0.5,0.2
		c0.2,0.2,0.1-0.6,0.5-0.2c0.4,0.4,0.5-0.5,0.8,0c0.3,0.5,0.3-0.4,0.5-0.1c0,0,0.1,0.6,0.3,0.3c0.1-0.3,0.3-0.5,0.3-0.1
		c0.1,0.4,0.3-0.4,0.5,0.2c0.1,0.6,0.1-0.3,0.5,0.4c0.3,0.8,0.6,0,0.7,0.3s-0.1-1,0.6,0.1c0.7,1.1,1.6,0.3,1.7,0.6
		c0.1,0.3,0.2-0.8,0.5-0.4c0.3,0.4,0.5-0.5,0.6-0.3c0.1,0.3,0.4-0.8,0.7-0.5c0.3,0.4,0.4-1,0.8-0.7c0.4,0.3,0.3-0.1,0.6,0.3
		c0.3,0.4,0.3-0.1,0.6,0c0.2,0.1,0.2-0.2,0.5-0.2c0.3,0,0.5-0.4,0.7-0.4c0.2,0,0.3-0.8,0.5-0.6c0.1,0.2,0.6-0.5,0.7-0.3
		c0.2,0.3,0.6,0,0.8,0c0.1,0,0.1-0.7,0.4-0.2c0.3,0.4,0.8,0.4,0.8,0.4s0.3-0.8,0.5-0.4c0.1,0.3,0.2-0.5,0.5-0.1
		c0.3,0.4,0.5-0.3,0.7-0.1c0.3,0.2,0.5-0.8,0.6,0c0.2,0.8,0.5-1,0.7-0.5c0.1,0.4,0.5-0.2,0.7,0c0.2,0.2,0.2-0.4,0.5-0.3
		c0.3,0.2,0.3-0.6,0.5-0.4c0.1,0.1,0.1-0.2,0.1-0.4c0,0,0-0.1,0-0.2c0,0,0.1,0,0.1,0.1c0.4,0.4,0.5-0.4,0.6,0
		c0.1,0.4,0.6,0.5,0.7,0.2c0-0.1,0-0.2,0-0.3c0,0,0,0,0-0.1c0,0,0,0,0.1,0.1c0.3,0.4,0.4,0,0.5,0.1c0.1,0,0.4-0.5,0.6-0.2
		c0.2,0.3,0.4-0.1,0.4,0.4c0,0.5,0.4-0.1,0.5,0.1c0.1,0.2,0.2-0.2,0.5,0c0.3,0.1,0.7-0.3,0.9-0.1c0.2,0.2,0-0.3,0.4,0.1
		c0.4,0.4,0.4-0.1,0.6,0.3c0.2,0.4,0.4-0.1,0.7,0c0.2,0.1,0.2-0.6,0.6-0.2c0.3,0.4,0.3-0.4,0.6,0.2c0.4,0.6,0.5,0.2,0.5,0
		c0,0,0-0.1,0-0.1c0,0,0-0.1,0-0.1c0.5,0.4,0.7,0.1,0.7,0.1s0.1-0.3,0.2,0c0.1,0.3,0.5-0.2,0.5,0c0.1,0.2,0.3-0.1,0.4,0.2
		c0.2,0.3,0.3-0.3,0.6,0c0.2,0.2,0.4,0.1,0.5,0.1c0,0,0.1,0.1,0.1,0.1c0.3,0.3,0.6-0.2,0.7-0.2h0v0.9c0,0,0.2,0.5,0.4,0.2
		c0.2-0.3,0.2-0.3,0.3-0.1c0.1,0.2,0.3-0.5,0.6,0.1c0.3,0.7,0.2,0.1,0.5,0.5c0.3,0.4,0.9,0.1,1,0c0.1-0.1,0-0.6,0.3-0.3
		c0.2,0.3,0.2-0.5,0.5,0c0.3,0.5,0.5,0.1,0.8,0.3c0.3,0.2,0.3-0.1,0.6,0.2c0.3,0.3-0.3-0.1,0.3,0.3c0.5,0.4,0.7-0.4,1,0.2
		c0.3,0.6,0.7-0.2,0.7-0.3c0-0.1,0-0.2,0-0.3c0,0,0-0.1,0-0.1c0,0,0.1,0,0.2,0.2c0.3,0.4,0.5-0.4,0.6-0.2c0.1,0.2,0.1-0.4,0.5,0
		c0.4,0.4,0.4-0.5,0.7-0.2c0.3,0.3,0.6-1.3,1-0.7c0.4,0.6,0.4,0,0.4-0.1c0.1-0.1,0.4-0.2,0.6,0c0.2,0.2,0.4,0.1,0.6,0.1
		c0.2,0.1,0.3-0.1,0.7,0c0.3,0.1,0.5-0.1,0.7,0c0.2,0.1,0.3,0,0.6,0c0.2,0,0.4-0.6,0.7-0.3c0.3,0.4,0.3,0.6,0.5,0.3
		c0.2-0.3,0.2-0.7,0.4-0.4c0.3,0.3-0.1-0.2,0.5,0.1c0.5,0.3,0.6-0.1,0.7,0c0.1,0.1,0.6-0.2,0.6-0.2s0-0.2,0-0.4c0,0,0.1,0,0.1,0
		s0-0.2,0-0.5c0,0,0-0.1,0-0.1h0.1c0,0,0.1,0.1,0.1,0.1c0.4,0.6,0.6,0.1,0.7,0.4c0.1,0.3,0.2-0.3,0.4-0.1c0.2,0.2,0.4-0.5,0.6-0.3
		c0.3,0.2,0.1,0.4,0.6-0.2c0,0,0,0,0,0l10.7-0.3c0.1,0.1,0.2,0.1,0.3,0l1,0c0,0,0,0,0,0c0.1,0.1,0.3,0,0.4,0h0.1c0,0,0.1,0,0.1,0.1
		c0,0,0.5,0.5,0.6,0.2c0.1-0.1,0.1-0.2,0.1-0.3l0.3,0c0.1,0.2,0.4-0.1,0.6,0.2c0.2,0.3,0.4-0.1,0.6,0.1c0.2,0.2,0.3-0.2,0.3-0.3
		l0.9,0c0.2,0.1,0.3,0,0.5,0.1c0.3,0.2,0.4-0.3,0.7,0.2c0.3,0.5,0.8-0.2,1,0.2c0.2,0.3,0.5,0.9,0.8,0.1c0.1-0.2,0.1-0.5,0.1-0.6
		c0,0,0-0.1,0-0.1l0.1,0c0.4,0.7,0.9,0.5,1.1,0.6c0.2,0.1,0.3-0.4,0.5-0.2s0.6-0.4,0.8-0.1c0.2,0.3,0.6-0.3,0.7,0.1
		c0.1,0.3,0.2-0.3,0.5-0.1c0.2,0.2,0.7,0.3,0.8-0.1c0-0.1,0.1-0.2,0.1-0.3l0.4,0c0,0,0.1,0.1,0.1,0.2c0.3,0.5,0.9,0.5,1,0.6
		c0.1,0.1,0.2-0.1,0.4,0.1c0.2,0.1,0.5-0.1,0.6-0.1c0.2,0.1,0.4-0.1,0.5-0.1c0.1,0.1,0.1-0.2,0.3-0.1c0.2,0.1,0.2-0.5,0.5-0.2
		c0.3,0.3,0.2,0,0.7,0.4c0.5,0.4,0.6-0.1,0.8,0.1c0.2,0.2,0.1-0.3,0.5-0.1c0.4,0.2,0.2-0.3,0.7-0.1c0.4,0.3,0.5,0,0.8,0.1
		c0.3,0.1,0.3-0.3,0.5-0.2c0.2,0.2,0.5-0.4,0.7-0.2c0.2,0.3,0.4,0.4,0.4,0.1c0-0.3,0.1-0.5,0.3-0.1c0.2,0.4,0.2,0.2,0.6,0.5
		c0.4,0.3,0.4-0.2,0.6,0.1c0.2,0.2,0.3,0,0.5,0.1c0.2,0.1,0.5,0.6,0.5,0.1c0-0.1,0-0.1,0-0.2c0,0,0-0.1,0-0.2c0-0.1,0-0.3,0-0.4
		c0,0,0.1,0.1,0.2,0.3c0.5,0.8,0.5,0,0.8,0.5c0.3,0.6,0.7,0.6,0.7,0.3c0-0.3,0-0.7,0.2-0.3c0.3,0.4,0.4,0.3,0.6,0.3
		c0.2,0,0.6,0.5,0.6-0.3c0-0.1,0-0.1,0-0.1c0-0.1,0-0.1,0-0.2c0-0.1,0-0.2,0-0.3c0-0.1,0.1,0,0.3,0.2c0.3,0.4,0.4,0,0.6,0
		c0.2,0,0.2-0.7,0.5-0.3c0.3,0.4-0.2,0.3,0.3,0.4c0.5,0.1,0.3-0.5,0.6-0.2c0.3,0.4,0.3,0,0.6,0.2c0.3,0.2,0.4-0.5,0.7-0.2
		c0.3,0.3,0-0.6,0.6-0.1c0.6,0.5,0.9,0.2,1,0c0-0.1,0-0.2-0.1-0.3c0,0,0,0,0,0c0,0,0.1,0.1,0.1,0.1c0.5,0.5,0.5,0,0.9,0.2
		c0.3,0.2,0.5-0.7,0.7-0.1c0.3,0.6,0.3,0.5,0.6,0c0.1-0.2,0.1-0.5,0.1-0.6c0.1-0.2,0-0.5,0-0.5l0-0.1c0.1-0.1,0.2-0.1,0.2,0.1
		c0.1,0.5,0.5,0.1,0.6,0.2c0.1,0.1,0.2-0.9,0.6-0.4c0.4,0.6,0.3-0.1,0.6,0.1c0.3,0.3,0.1-0.9,0.5-0.3c0.4,0.7,0.8,0.7,0.9,0.3
		c0.1-0.3,0.1-0.7,0.2,0c0.1,0.7,0.4,0.3,0.6,0.6c0.1,0.2,0.4-0.8,0.6-0.3c0.2,0.5,0.3-1.1,0.6-0.5c0.3,0.6-0.2,0,0.3,0.6
		c0.4,0.5,0.3-0.2,0.6,0.3c0.2,0.5,0.2-0.7,0.3-0.3c0.2,0.4,0.1-0.3,0.4,0c0.3,0.3,0-1,0.4-0.6c0.4,0.4,0.2-0.6,0.7-0.1
		c0.4,0.6,0.4,0,0.8,0.4c0.4,0.3,0.3-0.4,0.7,0c0.4,0.4,0.3-0.2,0.3-0.4c0-0.1,0-0.1,0-0.2c0-0.1,0.1,0,0.2,0.3
		c0.2,0.6,0.2-0.1,0.6,0.3c0.4,0.4,0.3-0.1,0.6,0.2c0.3,0.3-0.1-1.2,0.5-0.5c0.5,0.8,0.3-0.3,0.8,0.3c0.5,0.5,0.1-1.3,0.7-0.4
		c0.6,0.9,0.9,1.6,0.9,1.1c0-0.1,0-0.2,0-0.2c0,0,0,0,0.1-0.1c0,0,0-0.1,0-0.1c0,0,0,0,0,0c0.5,0.6,0.6,0.1,0.9,0.3
		c0.3,0.2,0.5,0.6,0.6,0.1c0.1-0.5,0.1-1,0.4-0.5c0.3,0.5,0.6,0,0.8,0.3c0.2,0.2,0.4-0.2,0.5-0.1c0.2,0.1,0.3-0.1,0.4,0.1
		c0.2,0.2,0.3-1,0.7-0.3c0.3,0.7,0.5,0.8,0.5,0.5c0-0.3,0.2-0.3,0.2-0.1c0,0.2,0.3,0.2,0.3,0.1c0-0.1-0.1-0.3-0.1-0.3c0,0,0,0,0,0
		c0,0,0.1,0.1,0.1,0.2c0.3,0.4,0.2-0.3,0.6,0.2c0.4,0.5,0.4-0.3,0.5-0.1c0.1,0.2,0.1-0.8,0.5-0.4c0.3,0.3,0.6-0.2,0.7,0
		c0.1,0.1,0.1-0.2,0.2-0.3c0.2,0.3,0.2,0.3,0.2,0.3l0.1-0.2c0,0,0.1,0.1,0.1,0.1v0.5c0,0,0.2-0.2,0.3-0.2c0,0.1,0.1,0.2,0.1,0.2
		c0,0.2,0,0.4,0,0.4s0.2-0.5,0.3-0.2c0.1,0.3,0.1,0.3,0.1,0.3s0.1-0.4,0.3,0c0.1,0.4-0.1,0.3,0.1,0.4c0.2,0.1,0.2-0.6,0.4-0.2
		c0.2,0.3,0.3-0.3,0.5,0.1c0.2,0.4,0.3-0.3,0.3,0c0.1,0.3,0-0.4,0.2,0.1c0.2,0.5,0.4-0.8,0.7,0.1c0.3,0.8,0.5,0.9,0.6,0.6
		c0-0.1,0-0.2,0-0.4c0,0,0,0,0,0c0,0,0-0.1,0-0.1c0,0,0,0.1,0.1,0.1c0.4,0.6,0.5-0.3,0.7,0.1s0.4-0.1,0.5,0.3
		c0.1,0.4,0.8-0.2,0.8-0.2s0.3,0,0.5,0.3c0.2,0.5,0.7-0.3,0.7,0.1c0.1,0.4,0.1-0.7,0.3,0.1c0.2,0.7,0.4-0.4,0.6,0.3
		c0.2,0.6,0.7,1,0.7,0.5c0-0.4,0.1-0.5,0.2-0.1s0.1-0.3,0.4,0.2c0.3,0.5,0.5-0.5,0.7,0.1c0.2,0.6,0.7,0.9,0.7,0.4
		c0.1-0.4,0.2-0.8,0.3-0.3c0.1,0.5,0.3-0.1,0.5,0.2c0.2,0.3,0.4-0.3,0.6,0.1c0.2,0.3,0.3,0,0.5,0.3c0.2,0.3,0.9-0.1,0.9,0
		c0,0.1,0.2,0.1,0.4,0.1c0.1-0.1,0.5-0.3,0.5-0.3s0-0.4,0.3,0c0.3,0.4,0.5,0.3,0.7,0.4c0.2,0.1,0.5-0.3,0.6,0c0.2,0.3,0.1-0.6,0.3,0
		c0.3,0.6-0.1,0.5,0.3,0.6c0,0,0.4,0.2,0.4,0c0.1-0.2,0.3,0,0.3,0.1c0,0.1,0.2-0.4,0.3,0c0.1,0.4-0.1-0.6,0.3,0.2
		c0.3,0.8,0.2,0.2,0.4,0.5c0.3,0.3,0.2-0.9,0.5-0.3c0.3,0.6,0.1-0.5,0.5,0c0.4,0.5,0.2,0.1,0.5,0.3c0.3,0.3,0.2-0.6,0.4,0
		c0.2,0.5,0.2-0.6,0.6,0.3s0.3,0.2,0.6,0.7c0.3,0.5,0.2-0.5,0.5,0s0.3-0.1,0.6,0.2c0.3,0.2,0.2-0.8,0.6-0.4c0.3,0.4,0.7-0.1,0.7-0.1
		s0.2-0.8,0.5-0.3c0.3,0.4,0.4-1.1,0.7-0.5c0.3,0.6,0.4-0.2,0.6,0.4c0.3,0.6,0.3,1.1,0.5,0.7c0.1-0.4,0.2-0.9,0.3-0.3
		c0.1,0.5,0,0.8,0.1,0.5c0.1-0.3,0.4-0.2,0.5-0.1c0.1,0.1,0.1,0.1,0.2,0.2c0.1,0.1,0.1-0.1,0.3,0c0.2,0.1,0.5-0.2,0.5-0.2
		s0.1-0.6,0.4-0.2c0.3,0.4,0.4-0.1,0.5,0c0.1,0.1,0.1-0.7,0.4-0.3s0.7-0.3,1,0.1c0.2,0.5,0.5,0.4,0.6,0.1c0-0.1,0-0.2,0-0.3
		c0,0,0,0,0-0.1c0,0,0.1,0.1,0.1,0.1c0.6,0.5,0.2-0.5,0.4-0.2c0.2,0.3,0.4-0.1,0.5,0.1s0.1-0.5,0.4,0c0.3,0.4,0.7,0.3,0.7,0.1
		c0-0.1,0-0.2-0.1-0.3c0,0,0,0,0,0c0,0,0,0,0,0.1c0.3,0.5,0.7-0.1,0.7-0.1s0.1-0.1,0.1-0.1c0.1,0,0.1-0.1,0.1-0.1
		c0.1,0,0.2,0,0.2,0.1c0,0.1,0.1,0.1,0.1,0.1c0,0.1,0.1,0.1,0.1-0.1c0-0.1,0.1-0.2,0.2-0.1c0,0.1,0.1,0.1,0.1,0.1
		c0.1,0.1,0.1,0.1,0.1,0.1s0.3,0.6,0.7,0.1c0-0.1,0-0.1,0.1-0.1c0,0,0,0,0,0c0,0.1-0.1,0.2-0.1,0.3c0,0.2,0.4,0.3,0.7-0.1
		c0.3-0.4,0.3,0.2,0.4,0s0.3,0.3,0.5-0.1c0.2-0.3-0.1,0.7,0.4,0.2c0.1-0.1,0.1-0.1,0.1-0.1c0,0,0,0,0,0.1c-0.1,0.1-0.1,0.2-0.1,0.3
		c0.1,0.3,0.4,0.3,0.6-0.1c0.2-0.5,0.7,0.2,1-0.1c0.3-0.4,0.3,0.4,0.4,0.3c0.1-0.1,0.2,0.4,0.5,0c0.3-0.4,0.4,0.2,0.4,0.2
		s0.4,0.3,0.5,0.2c0.2-0.1,0.1,0.1,0.3,0c0.1-0.1,0.2-0.1,0.2-0.2c0.1-0.1,0.4-0.2,0.5,0.1c0.1,0.3,0,0,0.1-0.5
		c0.1-0.5,0.2-0.1,0.3,0.3c0.1,0.4,0.2-0.1,0.5-0.7c0.3-0.6,0.4,0.3,0.6-0.4c0.3-0.6,0.3,0.9,0.7,0.5c0.3-0.4,0.5,0.3,0.5,0.3
		s0.3,0.5,0.7,0.1c0.3-0.4,0.2,0.7,0.6,0.4c0.3-0.3,0.3,0.3,0.6-0.2c0.3-0.5,0.2,0.5,0.5,0c0.3-0.5,0.2,0.2,0.6-0.7
		c0.4-0.9,0.4,0.2,0.6-0.3c0.2-0.6,0.1,0.3,0.4,0c0.3-0.3,0.1,0.2,0.5-0.3c0.3-0.5,0.2,0.6,0.5,0c0.3-0.6,0.2,0.6,0.5,0.3
		c0.3-0.3,0.1,0.3,0.4-0.5c0.3-0.8,0.1,0.2,0.3-0.2c0.1-0.4,0.3,0.1,0.3,0c0-0.1,0.2-0.3,0.3-0.1c0.1,0.2,0.4,0,0.4,0
		c0.3-0.1,0,0,0.3-0.6c0.3-0.6,0.2,0.3,0.3,0c0.2-0.3,0.4,0.1,0.6,0c0.2-0.1,0.4,0,0.7-0.4c0.3-0.4,0.3,0,0.3,0s0.4,0.3,0.5,0.3
		c0.1,0,0.4,0,0.4-0.1c0-0.1,0.7,0.3,0.9,0c0.2-0.3,0.3,0.1,0.5-0.3c0.2-0.3,0.4,0.2,0.6-0.1c0.2-0.3,0.3,0.3,0.5-0.2
		c0.1-0.5,0.3-0.1,0.3,0.3c0.1,0.4,0.5,0.1,0.7-0.4c0.2-0.6,0.4,0.4,0.7-0.1c0.3-0.5,0.3,0.2,0.4-0.2c0.1-0.4,0.2-0.3,0.2,0.1
		c0,0.4,0.5,0.1,0.7-0.5c0.2-0.6,0.3,0.5,0.6-0.3c0.1-0.3,0.1-0.3,0.2-0.2c0,0.7,0.4,0.2,0.6,0.3c0.2,0,0.3,0.1,0.6-0.3
		c0.3-0.4,0.2,0,0.2,0.3c0,0.2,0.3,0.2,0.6-0.2c0,0,0.1-0.1,0.1-0.1v0c0,0,0,0,0,0c0-0.1,0.1-0.1,0.1-0.1c0.1,0,0.3,0.2,0.4-0.1
		c0.1,0,0.1-0.1,0.2-0.2c0.1,0,0.2,0.2,0.3,0.2c0,0,0,0.1,0,0.1c0,0.4,0.2,0.2,0.4,0c0,0,0,0,0,0c0.1,0.3,0.2,0.3,0.4-0.1
		c0.1,0,0.1,0,0.2-0.1c0.2-0.2,0.2,0.3,0.6-0.1c0.3-0.3,0.4-0.2,0.5-0.3c0,0,0.1,0,0.1-0.1c0.1-0.2,0.2-0.1,0.3,0
		c0,0.1,0.2,0.1,0.4-0.1c0.1,0.1,0.1,0.3,0.2,0.3c0.2-0.1,0,0,0.1-0.3c0.1,0.1,0.3,0.3,0.4,0.2c0.2-0.2,0.1,0.3,0.5,0.2
		c0.3-0.1,0.4,0.1,0.8-0.1c0.4-0.3,0.3,0.3,0.7,0.1c0.4-0.3,0.3,0.2,0.5,0.1c0.2-0.2,0.3,0.3,0.8-0.1c0.5-0.4,0.4,0,0.7-0.4
		c0.3-0.3,0.2,0.3,0.5,0.2c0.2-0.1,0.2,0.2,0.3,0.1c0.1-0.1,0.4,0.1,0.5,0.1c0.2-0.1,0.4,0.2,0.6,0.1c0.2-0.1,0.3,0,0.4-0.1
		c0.1-0.1,0.8-0.1,1-0.6c0-0.1,0.1-0.1,0.1-0.2l0.4,0c0,0.1,0.1,0.2,0.1,0.3c0.1,0.4,0.5,0.2,0.8,0.1c0.2-0.2,0.3,0.4,0.5,0.1
		c0.1-0.3,0.5,0.2,0.7-0.1c0.2-0.3,0.6,0.4,0.8,0.1c0.2-0.2,0.3,0.3,0.5,0.2c0.2-0.1,0.7,0.1,1.1-0.6l0.2,0c0,0.2,0,0.5,0.1,0.7
		c0.2,0.8,0.6,0.2,0.8-0.1c0.2-0.3,0.6,0.3,1-0.2c0.3-0.5,0.4,0,0.7-0.2c0.2-0.2,0.3,0,0.5-0.1l0.9,0c0.1,0.2,0.2,0.5,0.3,0.3
		c0.2-0.2,0.5,0.1,0.6-0.1c0.2-0.2,0.4,0,0.6-0.2l0.3,0c0,0.1,0.1,0.2,0.1,0.3c0.1,0.3,0.6-0.2,0.6-0.2c0,0,0.1-0.1,0.1-0.1h0.1
		c0.1,0,0.2,0.1,0.4,0c0,0,0,0,0,0l1,0c0.1,0.1,0.2,0.1,0.3,0l10.7,0.3c0,0,0,0,0,0c0.5,0.5,0.3,0.4,0.6,0.2
		c0.3-0.2,0.4,0.5,0.6,0.3c0.2-0.2,0.3,0.4,0.4,0.1c0.1-0.2,0.3,0.2,0.7-0.4c0-0.1,0.1-0.1,0.1-0.1h0.1c0.1,0.1,0.1,0.3,0.1,0.4
		c0,0.1,0,0.1,0,0.1s0,0,0,0c0,0.2,0,0.4,0,0.4s0.4,0.3,0.6,0.2c0.1-0.1,0.2,0.3,0.7,0c0.5-0.3,0.2,0.2,0.5-0.1
		c0.3-0.3,0.2,0.1,0.4,0.4c0.2,0.3,0.3,0.1,0.5-0.3c0.3-0.4,0.5,0.3,0.7,0.3c0.2,0,0.4,0.1,0.6,0c0.2-0.1,0.4,0.1,0.7,0
		c0.3-0.1,0.5,0.1,0.7,0c0.2-0.1,0.4,0.1,0.6-0.1c0.2-0.2,0.5-0.1,0.6,0c0.1,0.1,0,0.7,0.4,0.1c0.4-0.6,0.7,1,1,0.7
		c0.3-0.3,0.3,0.6,0.7,0.2c0.4-0.4,0.4,0.2,0.5,0c0.1-0.2,0.3,0.6,0.6,0.2c0.3-0.4,0.2,0.1,0.2,0.2c0,0.1,0.4,0.9,0.7,0.3
		c0.3-0.6,0.5,0.2,1-0.2c0.5-0.4,0,0,0.3-0.3c0.3-0.3,0.3,0,0.6-0.2c0.3-0.2,0.5,0.2,0.8-0.3c0.3-0.5,0.3,0.3,0.5,0
		c0.2-0.3,0.1,0.2,0.3,0.3c0.1,0.1,0.7,0.4,1,0c0.3-0.4,0.3,0.1,0.5-0.5c0.3-0.7,0.5,0.1,0.6-0.1c0.1-0.2,0.2-0.2,0.3,0.1
		c0.2,0.2,0.4-0.2,0.4-0.2v-0.4c0,0,0,0,0,0v-0.5h0c0,0,0.4,0.5,0.7,0.2c0.1-0.1,0.1-0.1,0.1-0.1c0.1,0.1,0.3,0.1,0.5-0.1
		c0.3-0.3,0.5,0.3,0.6,0c0.2-0.3,0.4-0.1,0.4-0.2c0.1-0.2,0.4,0.3,0.5,0c0.1-0.3,0.2,0,0.2,0s0.2,0.4,0.7-0.1c0,0,0,0,0,0
		c0,0,0,0.1,0,0.1c0,0.1-0.1,0.1-0.1,0.2c0,0.2,0.1,0.6,0.5,0c0.4-0.6,0.3,0.2,0.6-0.2c0.3-0.4,0.3,0.3,0.6,0.2
		c0.3-0.1,0.5,0.4,0.7,0c0.2-0.4,0.2,0.1,0.6-0.3c0.4-0.4,0.2,0.1,0.4-0.1c0.2-0.2,0.6,0.2,0.9,0.1c0.3-0.1,0.5,0.3,0.5,0
		c0.1-0.2,0.5,0.4,0.5-0.1c0-0.5,0.2-0.2,0.4-0.4c0.2-0.2,0.5,0.3,0.6,0.2c0.1,0,0.2,0.4,0.5-0.1c0-0.1,0.1-0.1,0.1-0.1c0,0,0,0,0,0
		c0,0,0,0,0,0c0,0.1-0.1,0.3,0,0.4c0.1,0.3,0.6,0.2,0.7-0.2c0.1-0.4,0.2,0.4,0.6,0c0.4-0.4,0,0.6,0.3,0.5c0.2-0.1,0.2,0.6,0.5,0.4
		c0.3-0.2,0.3,0.4,0.5,0.3c0.2-0.2,0.6,0.4,0.7,0c0.1-0.4,0.5,1.3,0.7,0.5c0.2-0.8,0.4,0.2,0.6,0c0.2-0.3,0.4,0.4,0.7,0.1
		c0.3-0.4,0.4,0.4,0.5,0.1c0.1-0.3,0.5,0.4,0.5,0.4s0.5,0,0.8-0.4c0.3-0.4,0.3,0.2,0.4,0.2c0.1,0,0.6,0.3,0.8,0
		c0.2-0.3,0.6,0.5,0.7,0.3c0.1-0.2,0.2,0.6,0.5,0.6c0.2,0,0.4,0.4,0.7,0.4c0.3,0,0.3,0.3,0.5,0.2c0.3-0.1,0.3,0.4,0.6,0
		c0.3-0.4,0.3,0,0.6-0.3c0.4-0.3,0.5,1,0.8,0.7c0.3-0.4,0.6,0.8,0.7,0.5c0.1-0.3,0.3,0.6,0.6,0.3c0.3-0.4,0.4,0.7,0.5,0.4
		c0.1-0.3,1,0.5,1.7-0.6c0.7-1,0.5,0.2,0.6-0.1s0.4,0.5,0.7-0.3c0.3-0.8,0.3,0.2,0.5-0.4c0.1-0.6,0.4,0.2,0.5-0.2
		c0.1-0.4,0.2-0.2,0.3,0.1c0.1,0.2,0.3-0.3,0.3-0.3c0.2-0.4,0.2,0.6,0.5,0.1c0.3-0.5,0.5,0.3,0.8,0c0.4-0.4,0.3,0.4,0.5,0.2
		c0.3-0.2,0.3,0.2,0.5-0.2c0.3-0.4,0.6,0.5,0.9,0.3c0.3-0.2,0.2,0.2,0.4-0.1c0.2-0.4,0.3,0.1,0.4,0c0.1-0.1,0.2-0.5,0.3-0.8
		c0.1-0.3,0.2,0.3,0.6-0.1c0.4-0.4,0.4,0.3,0.6,0.1c0.2-0.2,0.4,0.1,0.7-0.2c0.3-0.4,0.3,0.4,0.6,0.1c0.3-0.3,0.3,0,0.5-0.3
		c0.2-0.3,0.4,0.1,0.6-0.2c0.3-0.4,0.2,0.4,0.4,0c0.2-0.4,0.2,0.3,0.6-0.2c0.4-0.5,0.3,0.4,0.5,0.2c0.2-0.2,0.3,0.4,0.6,0
		c0.3-0.4,0.6,0.5,0.7,0.4c0.1-0.1,0.4-0.1,0.6-0.4c0.2-0.3,0.4,0.2,0.5,0c0.1-0.2,0.2,0.1,0.4-0.2c0.2-0.3,0,0,0.2-0.6
		c0-0.1,0.1-0.2,0.1-0.2c0,0.1,0,0.2,0,0.2c0.1-0.1,0.2,0.3,0.3,0.2c0.1-0.2,0.3,0.4,0.5,0c0.1-0.3,0.3,0.4,0.5,0.1
		c0.1-0.3,0.2,0.1,0.3-0.7c0.1-0.8,0.2,0.4,0.4,0c0.1-0.4,0.2,0.1,0.5-0.3c0.3-0.4,0.3,0.4,0.5,0.1c0.3-0.3,0.2,0.4,0.5,0.2
		c0.3-0.3,0.3,0.7,0.5,0.4c0.2-0.3,0.5,0.3,0.7,0.1c0.2-0.3,0.4,0.2,0.8-0.5c0.3-0.8,0.4,0.6,0.6,0.3c0.1-0.3,0.4,0.6,0.7-0.3
		c0.3-0.9,0.3,0.2,0.6,0c0.2-0.2,0.3,0.2,0.5,0c0.2-0.2,0.3,0.4,0.6,0c0.3-0.4,0.4,0.3,0.5,0.2c0.1-0.1,0.5,0.3,0.5,0.2
		c0.1-0.2,0.7,0,0.9-0.4c0.2-0.3,0.5-0.6,0.5-0.6c0.1-0.4,0.2,0.4,0.3,0c0.1-0.4,0.2,0.1,0.7-0.5c0.4-0.6,0.3,0.6,0.3,0.6
		c0-0.1,0.3,0.3,0.5,0c0,0,0.1,0,0.1,0c0,0.1-0.1,0.3-0.1,0.3s0,0,0.1-0.1c0,0.2-0.1,0.5-0.1,0.5s0,0,0.1-0.1
		c0.1-0.1,0.1,0.6,0.4,0.3c0.3-0.3,0,0.8,0.3,0.5c0.3-0.3,0,0.8,0.3,0.4c0.3-0.4,0.2,0.4,0.5,0c0.3-0.5,0.3,0.4,0.6,0.1
		c0.3-0.4,0.2,0.2,0.5-0.3c0.3-0.5,0.2,0.4,0.5,0c0.3-0.4,0.2,0.7,0.5,0.3c0.3-0.4,0.3,0.4,0.6,0c0.3-0.4,0.4,0.3,0.6-0.2
		c0.2-0.5,0.4,0.5,0.5,0.1c0.1-0.4,0.3,0.5,0.6,0.1c0.3-0.4,0.3,0.4,0.4,0.2c0.1-0.2,0.3,0.2,0.5,0.1c0.1-0.1,0.2,0.3,0.5,0
		c0,0,0.3,0.2,0.4-0.1c0.1-0.3,0.6,0.1,0.8,0.1c0.1,0,0.1,0,0.1,0.1c0,0,0-0.1,0.1-0.1c0.1,0,0.2,0.3,0.2,0.3s0,0,0.3-0.4
		c0.2-0.4,0.3,0.2,0.3,0.2v-0.3c0,0,0.5,0.3,0.6,0.4c0.1,0.1,0.6-0.1,0.6-0.1s0,0,0.1-0.1c0.1-0.1,0.4,0.1,0.4,0.1s0,0,0.2-0.4
		c0.2-0.4,0.3,0.3,0.5,0.5c0.1,0.2,0.1-0.2,0.2-0.5c0.1-0.3,0.4,0.3,0.4,0.3s0,0,0.2-0.2c0.2-0.2,0.5,0.1,0.5,0.1s0,0,0.1-0.1
		c0.1-0.1,0.5,0.5,0.5,0.5s0.1-0.3,0.3-0.6c0.2-0.3,0.4,0.2,0.4,0.2s0.1-0.3,0.2-0.4c0.1-0.2,0.3,0.1,0.3,0.1s0,0,0.1-0.2
		c0.1-0.2,0.2,0.2,0.2,0.2s0.1-0.3,0.4-0.5c0,0,0.1,0,0.1,0c0,0.1,0,0.1,0,0.2c0,0,0-0.1,0.1-0.2c0,0.1-0.1,0.5-0.1,0.6
		c0-0.1,0.2-0.4,0.2-0.6v0.8c0,0.1,0.4-0.3,0.4-0.3v0.5l0.2-0.1c0,0,0.1,0.3,0.2,0.3c0.1,0,0.6,0.2,0.6,0.2h0.3l0.1,0.2l0.1,0.2
		l0.5-0.5l1.2,1v-0.4l0,0V29h1l1.2,1.5c0,0,0,0,0.3-0.7c0.3-0.7,0.8,0.2,0.8,0.2v-0.4c0,0,0,0,0,0v-0.6l1.2,0.9c0,0,0.9,0.3,1.3,0.8
		c0.4,0.4,1.5,0,1.5,0v-0.4c0,0,0,0,0,0v-0.5l1.6,0.9h0.8c0,0,0.7-0.6,1-0.9c0.3-0.3,1.1,0,1.1,0l0.9,0.9v-0.4l0,0v-0.7h1.3v-0.4h0
		v-0.8l0.9,0.2c0,0,0,0,0.1-0.2c0.1-0.2,1.9,0,1.9,0h1.6v1.2l1.1-1.3v-0.4l0,0v-0.7l0.9,1.1l0.8-1.1v-0.4l0,0V24.6z"/>
</g>
<g>
</g>
<g>
</g>
<g>
</g>
<g>
</g>
<g>
</g>
</svg>
