<?xml version="1.0" encoding="utf-8"?>
<!-- Generator: Adobe Illustrator 28.1.0, SVG Export Plug-In . SVG Version: 6.00 Build 0)  -->
<svg version="1.1" id="Ebene_1" xmlns="http://www.w3.org/2000/svg" xmlns:xlink="http://www.w3.org/1999/xlink" x="0px" y="0px"
	 viewBox="0 0 1920 51.5" style="enable-background:new 0 0 1920 51.5;" xml:space="preserve" fill="#561D25">
<g>
	<path d="M1202.5,39.5C1201.5,39.5,1202.7,39.7,1202.5,39.5L1202.5,39.5z"/>
	<path d="M1417.1,39.8C1417.1,39.8,1417.1,39.8,1417.1,39.8C1417.2,39.8,1417.2,39.8,1417.1,39.8
		C1417.1,39.8,1417.1,39.8,1417.1,39.8z"/>
	<path d="M168.4,35.6C168,35.6,168.5,35.7,168.4,35.6L168.4,35.6z"/>
	<path d="M1761.4,29.6c5.7-0.1,11.5-0.1,17.2-0.2C1772.3,28.9,1765.8,28.5,1761.4,29.6z"/>
	<path d="M1417.2,39.8C1417.2,39.8,1417.2,39.8,1417.2,39.8C1417.2,39.8,1417.2,39.8,1417.2,39.8
		C1417.2,39.8,1417.2,39.8,1417.2,39.8z"/>
	<path d="M1796.7,29.9c0,0,0,0,0.4,0c0.4,0,3.9,0,3.7-0.3c-0.2-0.3-2.9-0.3-3.5-0.3c-6.3,0-12.5,0-18.7,0.1c4.9,0.4,9.6,0.9,13.2,1
		C1793.7,30.4,1795.4,30.8,1796.7,29.9z"/>
	<path d="M1485.4,39.4C1485.4,39.4,1485.4,39.4,1485.4,39.4C1485.4,39.4,1485.4,39.4,1485.4,39.4
		C1485.4,39.4,1485.4,39.4,1485.4,39.4C1485.4,39.4,1485.4,39.4,1485.4,39.4z"/>
	<path d="M1408.6,39.9c-1.1,0-3-0.1-2.1,0.5c0.9,0.6,4.5,0.6,5.7,0.6c1.2,0,2.3,0,1.8-0.4C1413.5,40.1,1409.7,40,1408.6,39.9z"/>
	<path d="M1045.1,39.6c-2.3-0.2-4.6-0.2-6.8,0.2c-0.5,0.1-0.1,0.3,0.2,0.3c1.9,0.3,5.2,0.1,6.7,0.1c1.5,0,2.9-0.2,2.5-0.5
		C1047.3,39.5,1045.9,39.6,1045.1,39.6z"/>
	<path d="M1775.5,31.6c-0.3,0-1.8-0.1-2.1,0c-4.9,0.7-9.9,1.1-14.7,1.8c-0.1,0-0.1,0-0.1,0c3.5,0.3,7.2,0.2,10.7,0.1
		c0.2,0,0.3,0,0.4,0c0,0,0,0,0.1,0c0,0,0,0,0,0s0,0,0,0c0,0,0,0,0,0c0,0,0,0,0,0c0,0,0,0,0,0c0,0,0,0,0,0c0,0,0,0,0,0c0,0,0,0,0,0
		c0,0,0,0,0,0c0.1,0,0,0,0,0c0,0,0,0,0,0h0c0,0,0,0-0.1,0c0,0,0,0,0,0c0,0,0.1,0,0.1,0c0,0,0,0,0.2,0c0.1,0,0.1,0,0.2,0
		c0.7-0.1,3.2,0.1,4.1-0.2c0.9-0.2,1.6-1.1,2.3-1.3C1777.6,31.8,1775.8,31.7,1775.5,31.6z"/>
	<path d="M1769.9,33.6C1769.9,33.6,1769.9,33.6,1769.9,33.6C1770,33.6,1770,33.6,1769.9,33.6z"/>
	<path d="M1644.1,36.8c-0.3-0.2-1.4-0.1-1.8-0.1c-0.4,0.1-0.8,0.2-0.6,0.3c0.1,0.1,1.5,0.1,1.9,0C1643.9,37.1,1644.5,37,1644.1,36.8
		z"/>
	<path d="M1796.1,32.6c-3.6-0.4-9-0.4-12.2-0.3c-3.2,0.1-2.9,0.1-3.7,1.1c5.3-0.1,10.4-0.2,15.6-0.4
		C1796,32.9,1796.4,32.7,1796.1,32.6z"/>
	<path d="M676.4,42.1c-2.3,0.3-0.3,0.5,0.8,0.4C677.4,42.6,676.8,42.1,676.4,42.1z"/>
	<path d="M307,34.6c0-0.1-0.7-0.1-0.7,0C306.3,34.7,307,34.7,307,34.6z"/>
	<path d="M362.7,38.9c-13.3,0-26.7,0.3-39.9,0.4c-1,0-2-0.1-2.7-0.1c-0.7-0.1-0.6-0.2-0.2-0.3c0.5-0.1,2-0.3,2.5-0.4
		c0.5-0.1,0.8-0.2,0.7-0.4c-0.1-0.2,0.1-0.1-0.6-0.2c-0.6-0.2-1.7-0.4-2.9-0.5c-1.2-0.2-3.5-0.6-4.8-0.9c-0.1,0-0.1,0-0.2-0.1
		c-0.1,0-0.4-0.1-0.5-0.2c-0.1-0.1-0.5-0.1-0.5-0.3c0-0.1-0.6-0.3-0.3-0.5c1.2-0.9,0.2-1.9-0.7-1.3c-0.1,0.1-0.2,0.1-0.2,0.2
		c-1.6,0.1-3.4,0.2-5,0.4c-0.3,0,0,0.3-0.1,0.3c-0.1,0,0,0,0,0c0,0,0,0,0,0c0,0,0,0,0,0c0,0-0.2,0-0.6,0.1c-1,0.2-5.5,0.8-6.6,0.9
		c-0.5,0.1-0.5,0.1-0.5,0.1c0,0-0.1,0-0.1,0c0,0-0.1,0-0.2,0c-0.4,0-1.4,0-2.1,0c-0.8,0-1.6,0.3-2.4,0.4c-2.4,0.5-5.3,0.9-8,0.7
		c-2.7-0.1-6-0.3-8.4-0.7c-4.2-0.6-10.5-0.4-13.2,0c-0.3,0.1-0.5,0.1-0.7,0.1c0.2,0,0.4-0.1,0.3-0.1c-0.1,0-0.1,0-0.1,0
		c0.2-0.1,0,0,0,0c0,0,0,0,0,0c-0.2,0-0.2,0-0.2,0c0,0-0.1,0-0.1,0c-0.1,0-0.1,0-0.3,0c-1.1,0.1-3.9-0.2-5.2-0.4
		c-5.1-0.9-8.5-0.7-13.7-0.1c-5.2,0.6-10.6,1.1-15.3,2.3c-0.1,0,0.1,0.1,0.2,0.1c2.1,0,5.9-0.1,7.6,0c1.7,0,2.1,0.2,3.1,0.4
		c0,0,0,0,0.1,0c0,0-0.1,0-0.2,0.1c-0.3,0.2-3,0.7-3.8,0.9c-0.7,0.1-0.5,0.6,0.2,0.6c5.4,0,8.9,0.7,14.7,0.7c9.3,0,20-0.2,29.8-0.4
		c5.5-0.1,10.5-0.2,16.1-0.8c5.6-0.5,10.7-0.5,16.9-0.1c6.2,0.4,13.7,0.6,20.1,1c0.8,0,1.3-0.5,2.4-0.4c1.1,0.1,4.3,0.4,5.3,0.2
		c5.4-1.2,9.4-1,15.1-0.9c7.4,0.1,15-0.1,22.4-0.5c-0.5,0-0.9-0.2-1.4-0.2C373.3,39,367.9,38.9,362.7,38.9z M264.2,36.7
		c0,0,0.1,0-0.1,0C264.1,36.8,264.2,36.8,264.2,36.7z M263.5,37.7c-1.2,0.1-4.4,0.4-5.4,0.4c-1,0.1-1.8,0.2-2.1,0.2
		c-0.3,0-0.1-0.4,0-0.5c0.8-0.7,2-0.1,3.8-0.1c1.7,0,4.1-0.1,5.8-0.5C265.2,37.6,264.7,37.6,263.5,37.7z M305.2,36.5
		C305.2,36.5,305.2,36.6,305.2,36.5C305.1,36.5,305.2,36.5,305.2,36.5z M304.3,37.2c1.7,1.9-5.3,1.6-8.2,1.6c3-0.4,5.7-1.2,8.6-1.7
		c0.7-0.1,0.9-0.3,0.8-0.4c0,0-0.1-0.1-0.1-0.1c0,0,0,0,0,0C306.1,36.9,305.1,37,304.3,37.2z M312.3,34.3
		C312.3,34.3,312.3,34.3,312.3,34.3C312.3,34.3,312.3,34.3,312.3,34.3C312.3,34.3,312.3,34.3,312.3,34.3
		C312.3,34.3,312.3,34.3,312.3,34.3z M312.3,34.3C312.3,34.3,312.3,34.3,312.3,34.3C312.3,34.3,312.3,34.3,312.3,34.3
		C312.3,34.3,312.3,34.3,312.3,34.3C312.3,34.3,312.3,34.3,312.3,34.3z"/>
	<path d="M320.2,32.3c0,0,0.2,0.1,0.2,0C320.3,32.3,320.2,32.3,320.2,32.3z"/>
	<path d="M319.8,32.3c-0.8-0.1-2.2,0.2-2.5,0.3c-0.1,0-0.1,0-0.1,0.1c0,0,0,0,0,0c-0.6,0-2,0.3-2.2,0.3c-0.2,0.1-0.2,0.1,0.1,0
		c0.3,0,1.7-0.3,2.3-0.3C318,32.6,319.4,32.4,319.8,32.3c0.2,0,0.3,0,0.3,0c0,0,0,0,0,0C320.2,32.3,319.8,32.3,319.8,32.3
		C319.8,32.3,319.9,32.3,319.8,32.3C319.9,32.3,319.9,32.3,319.8,32.3z"/>
	<path d="M307.2,34.7C307.2,34.7,307.2,34.7,307.2,34.7C307.3,34.6,307.3,34.6,307.2,34.7C307.2,34.6,307.1,34.6,307.2,34.7
		C307.1,34.6,307.1,34.7,307.2,34.7C307.2,34.7,307.2,34.7,307.2,34.7z"/>
	<path d="M126.9,35.4c-1.6,0.4,2,0.7,3,0.6c2.5-0.1,5.2-0.3,7.4-0.9C133.9,35,129.9,34.7,126.9,35.4z"/>
	<path d="M1795,31.6c0.1-0.1-1.1-0.2-1.4-0.2c-0.3-0.1-1.6-0.2-1.7,0.1c0,0.3,0.9,0.2,1.3,0.3C1793.6,31.8,1794.9,31.7,1795,31.6z"
		/>
	<path d="M434.5,33.6c0.5,0,0.5-0.1,0.4-0.1C434.9,33.4,434,33.5,434.5,33.6z"/>
	<path d="M320.7,32.3c0-0.1-0.3-0.1-0.3-0.1C320.4,32.4,320.7,32.4,320.7,32.3z"/>
	<path d="M894.9,39.5c-0.3,0-0.6,0.5-0.3,0.4C896.3,39.9,897,39.6,894.9,39.5z"/>
	<path d="M911.4,38c0.4-0.6,0.8-1.2,1.2-1.8C910.7,36.7,910,37.2,911.4,38z"/>
	<path d="M925.4,40.8c0,0.2,0.1,0.6,0.7,0.6c0.6,0.1,2.2-0.1,2.4-0.4c0.2-0.4-1.5-0.8-2.2-0.8C925.6,40.2,925.4,40.6,925.4,40.8z"/>
	<path d="M435.3,33.4C435.3,33.4,435.3,33.4,435.3,33.4C435.2,33.4,435.2,33.4,435.3,33.4c-0.1,0-0.1,0-0.1,0c0,0,0,0,0,0
		c0,0-0.1,0-0.1,0C435.1,33.5,435.3,33.5,435.3,33.4C435.3,33.4,435.3,33.4,435.3,33.4C435.3,33.4,435.3,33.4,435.3,33.4
		C435.3,33.4,435.3,33.4,435.3,33.4z"/>
	<path d="M330.1,35.5c1.3,0,2.2-0.3,0.8-0.7c-1.4-0.4-3.9-0.3-5.6-0.4c0.4,0.3-0.1,0.5,0.7,0.8C327,35.5,328.8,35.5,330.1,35.5z"/>
	<path d="M320.8,32.5c0.2,0.3,0.5,2.3,1.4,1.7C320.6,33.9,321.8,32.9,320.8,32.5C320.7,32.3,320.8,32.4,320.8,32.5z"/>
	<path d="M931.3,40.3c-0.4,0-0.4,0.1-0.7,0.1c-0.3,0-0.6,0-0.8,0c-0.2,0-0.9-0.1-0.9-0.1c0,0.1,0.7,0.2,1,0.3
		c0.3,0.1,1.6,0.2,1.7,0.2c0.1,0-0.7,0.1-0.2,0.2c0.5,0.1,1.5,0.2,1.7,0.1c0.2-0.1,0.8-0.5,0.7-0.5
		C933.6,40.6,931.7,40.3,931.3,40.3z"/>
	<path d="M352.6,31.8c-1.6,0.1-4-0.5-5.5-0.2c-1.7,0.3-0.7,0.8,1,0.9C349.8,32.5,351.6,32.6,352.6,31.8z"/>
	<path d="M1071.1,39.4c0,0,2,0.1,2,0.1C1073.2,39.4,1071.1,39.3,1071.1,39.4z"/>
	<path d="M1287.7,38.6c0,0.1,0.5-0.1,0.4-0.1C1288,38.4,1287.8,38.5,1287.7,38.6z"/>
	<path d="M1635.1,32.8c0.8,0,1.4,0,2.2,0.1c2.8,0.1,5.7,0.1,8.6,0C1642.2,32.4,1638.8,32.5,1635.1,32.8z"/>
	<path d="M1618.4,34.7c-0.1,0,0.5,0,0.1,0C1618.4,34.7,1618.4,34.7,1618.4,34.7z"/>
	<path d="M462.1,36.3c0,0-1.2,0-1.2,0C460.9,36.3,462.1,36.3,462.1,36.3z"/>
	<path d="M1649.6,32.6c-1.1,0.1-2.6,0.1-3.7,0.2c1.9,0.3,3.2,0.6,4.8,1.2c0.1,0-0.4,0.1,1,0.2c1.4,0.1,4.1-0.7,6.9-0.2
		c0.2,0,0.3,0,0.3,0c0.3,0.1,0.7,0.2,1.1,0.3c5.8,1.3,23.8,0.6,34.3-0.2c8.6-0.7,20.9,0.1,30.1-0.3c3.1-0.1,6.3,0,9.1-0.6
		c-25.1,0.1-50.3,0.1-75.4,0.2C1655.5,32.3,1653.3,32.4,1649.6,32.6z"/>
	<path d="M1315.7,38.5C1315.7,38.5,1315.7,38.5,1315.7,38.5c-0.9-0.1-2.8-0.1-3.2,0c-0.4,0.1-0.1,0-0.1,0c-0.3,0.7,1.3,2,3.1,2.1
		C1319.7,40.7,1316.8,39.3,1315.7,38.5z"/>
	<path d="M1617.8,34.7C1617.8,34.7,1617.8,34.7,1617.8,34.7C1618.3,34.7,1618.1,34.7,1617.8,34.7z"/>
	<path d="M1617.7,34.7C1617.7,34.7,1617.7,34.7,1617.7,34.7C1617.7,34.7,1617.7,34.7,1617.7,34.7
		C1617.7,34.7,1617.7,34.7,1617.7,34.7z"/>
	<path d="M1704,26.9C1704,26.9,1704,26.9,1704,26.9c0.1,0,0.1,0,0.1,0c0,0,0.1,0,0,0C1704.1,26.8,1704,26.9,1704,26.9
		C1704,26.9,1704,26.9,1704,26.9C1704,26.9,1704,26.9,1704,26.9C1703.9,26.9,1704,26.9,1704,26.9z"/>
	<path d="M1704.3,26.8c0.2,0,0.8-0.1,0.3-0.1C1704,26.7,1704.1,26.8,1704.3,26.8z"/>
	<path d="M368.9,31.8c-2,0-5.2,0-6.9-0.2c-3.1-0.3-4.3-0.1-7.1,0.2c3.4,0.9,5.7,0.8,9.7,0.7c1.2,0,3.4,0.3,4.8,0c0,0,0,0,0.1,0
		c0,0,0.1,0,0.7,0c1.4,0.1,5.2,0,6.9,0c0.8,0,0.3,1,1,1c1.5,0.1,3.6-0.2,5.1-0.3c0,0,0,0,0,0c0,0,0.1,0,0.1,0c0.3,0,0.8,0,1.2,0
		c0.4,0,0.9,0,1.3,0c5,0.4,9.5,0.2,14.6,0c3.4-0.1,6.9,0.6,9.8-0.5c0.1,0,0.1,0,0.3,0c0,0,0,0,0,0c-0.1,0-0.7,0.1,1.4-0.1
		c1-0.1,4.7-0.4,6-0.6c-0.8,0-1.8,0-2.7,0C400,31.8,384.5,31.5,368.9,31.8z"/>
	<path d="M369.5,32.5C369.5,32.5,369.5,32.5,369.5,32.5C369.7,32.5,369.6,32.5,369.5,32.5z"/>
	<path d="M1720.6,31.9c-1.8,0.1-4.2,0.1-0.7,0.5c1.7,0.2,5.2,0.2,7.2,0.2C1727.5,31.3,1722.4,31.8,1720.6,31.9z"/>
	<path d="M1704.4,32.6c0.5,0,1.4-0.1,1.3-0.2c-0.1-0.1-1.5-0.1-2-0.1c-0.5,0-2.1,0-1.4,0.2C1703,32.8,1703.9,32.6,1704.4,32.6z"/>
	<path d="M1786.2,27.1c1.9,0.1,3.9,0.2,5.9,0.2c0.8-0.7-0.6-0.8-2.2-0.9C1788.2,26.3,1786.5,26.2,1786.2,27.1z"/>
	<path d="M1391.6,38.3c-0.9,0-1.4-0.1-2.3-0.1c-11.2,0-21.6,0.1-33,0.2c-11.4,0.1-23.8,0-35.4,0c-0.5,0-1,0.1-1.4,0.1
		c5.5,0.1,11.2,0.2,16.6,0.3c0.5,0,0.4,0,0.8,0c0,0,0,0,0,0c0,0,0,0,0,0c0,0,0,0,0,0c0,0,0,0,0,0c0,0,0,0,0,0c0,0,0,0,0,0
		c0,0,0,0,0,0c0,0,0,0,0,0c0,0,0,0,0.1,0c0.1,0,0.1,0,0.3,0c17.4,0.3,35.9,0.5,53,0.6c3,0,4.7,0.4,6.2-0.5
		C1398,38.2,1392.5,38.3,1391.6,38.3z"/>
	<path d="M1819.7,25.4c0,0-0.2,0-0.2,0c0,0,0,0,0,0C1819.6,25.4,1819.7,25.4,1819.7,25.4z"/>
	<path d="M1920,26.4v-1.5c-4.9,0.1-9.8,0.2-14.6,0.1c-6.3-0.1-11.4,0.2-17.5,0.5c-9.1,0.4-17.4,0.5-25.2,2.7c-0.1,0-0.3,0-0.4,0
		c-0.1,0-0.3-0.2-0.4-0.2c0,0,0,0,0,0c0-0.1,0,0.1,0.1-0.1c0.1-0.1,0,0.3,0.6-0.3c0.5-0.6-2.5-1.3-4.6-1.3
		c8.7-0.9,17.5-1.4,26.4-1.7c11.9-0.4,23.7-0.6,35.6-1.1v-1.9c-2.9-0.2-4.7,0.1-7.8,0.6c0,0,0,0,0,0c0,0-0.1,0-0.1,0
		c-0.4,0,0.9-0.1-0.7,0.1c-1.7,0.2-7,0.6-9,0.2c-3.4-0.7-5.7-0.7-9.3-0.6c-3.6,0.1-6.7,0.1-10.4,0.3c-3.7,0.1,2.5,0.7-3.4,0.6
		c-5.9-0.2-12.3-0.3-18.2,0.2c0,0,0.5,0.1,0,0c-0.5-0.1-4.3-0.6-5-0.4c-4.2,0.9-10.7,0.9-14.3,0.9c-3.6,0-3.4,0-5,0.8
		c-0.2,0.1,0.1,0,0.1,0c-2.8,0.8-5.5,0.8-8.7,0.9c-0.9,0-2.3,0.1-3.1,0.2c-3.9,0.9-0.6,1.3,3,1.3c3.6,0,11.2-0.9,12.9,1.2
		c-4.1-0.3-8-0.2-12,0.1c-1.5,0.1-3,0.5-4.6,0.5c-6.2,0.1-12.4,0.4-18.6,0.5c5.1,0.7,9.5,1,15.1,1c0.7,0,3.3-0.9,4-1
		c0.2,0,0.2,0,0.2,0c0.1,0,0.2,0,0.4,0c1.2,0.1,2.7,0.4,3.9,0.8c2.7,1,5.8,1.1,9.2,0.7c0,0,0,0,0,0c0,0,0,0,0,0c0,0,0,0,0,0
		c0,0,0,0,0,0c0,0,0,0,0,0c0,0,0,0,0,0c0,0,0,0,0,0c0,0,0,0,0,0c0,0,0,0,0,0c0,0,0.1,0,0.3,0c0.8,0,3.9,0.3,4.6-0.1
		c0.2-0.1,0.1,0,0.1,0c0.1,0-0.1,0,0.3,0c0.4,0,1.3,0.2,1.9,0c0.6-0.3-0.1-0.2,1.8-0.6c4.6-1,13.5-1.3,19-0.2c0.2,0,0.2-0.1,0.3-0.1
		c0,0,0,0,0,0c0.1,0,0,0,0.1,0c0.1,0,0.2,0,0.4,0c3,0,6.3-0.6,9.1-0.8c3.4-0.2,7.5,0.2,10.7,0c3.1-0.2,5.7-1.2,7.9-1.6
		c2.3-0.3,1.8,0.1,3.7,0.2c2,1.4,7.9,1,10.6,0.9c2.8-0.1,6.1-0.1,4.9-1.2c0,0,0,0-0.1,0c0.1,0,0.3,0,0.7,0c1.6-0.1-3.3,0.2,3.2-0.2
		C1918.9,26.5,1919.4,26.4,1920,26.4z"/>
	<path d="M1856.5,28.1C1856.5,28.1,1856.6,28.1,1856.5,28.1C1856.6,28.1,1856.6,28.1,1856.5,28.1
		C1856.6,28.1,1856.6,28.1,1856.5,28.1z"/>
	<path d="M1815.7,26.3c-0.8-0.3-0.6-0.5-1.7-0.8c-1.1-0.2-2.8-0.3-4.3-0.2c-1.5,0.1-1.5,0.4,0.2,0.7
		C1811.4,26.3,1813.8,26.2,1815.7,26.3z"/>
	<path d="M1886,33.9c4.1-0.2,8.3-0.5,12.4-0.7C1894,33.1,1890.1,33.2,1886,33.9z"/>
	<path d="M1838.6,30.4C1838.6,30.4,1838.7,30.4,1838.6,30.4C1838.7,30.4,1838.9,30.5,1838.6,30.4
		C1838.7,30.4,1838.7,30.4,1838.6,30.4C1838.7,30.4,1838.7,30.4,1838.6,30.4C1838.7,30.4,1838.7,30.4,1838.6,30.4
		C1838.7,30.4,1838.7,30.4,1838.6,30.4C1838.6,30.4,1838.6,30.4,1838.6,30.4z"/>
	<path d="M1920,28.3c-10.9,0.3-21.7,0.7-32.6,1.1c-9.1,0.4-17.7,0.5-26.6,1.3c-1.6,0.1-3.5,0.1-5.1,0.1c-11,0.2-22.5,0.5-33.3,0.8
		c-4.3,0.1-6.5,0.1-10.1,1c4.3,0,8,0.2,12.2-0.4c2-0.3,4.7-0.3,6.9-0.3c8.3,0,20.4-0.5,27.4-0.7c2.4-0.1,2.5-0.1,2.7-0.1
		c0,0-0.1,0-0.1,0c-0.1,0,0.5,0,0.5,0c0,0,0,0-0.1,0c0.1,0,0.1,0,0.2,0c4.4,0,9.3-0.2,14-0.3c15-0.4,28.9-1,44-1.5V28.3z"/>
	<path d="M1846,30.3c0,0,0.4-0.2,0.3-0.2C1846.2,30.2,1846,30.3,1846,30.3z"/>
	<path d="M1819.9,25.4C1819.8,25.4,1819.8,25.4,1819.9,25.4C1819.8,25.4,1819.8,25.4,1819.9,25.4z"/>
	<path d="M1819.4,25.5c0,0,0.4-0.1,0.4-0.1c0,0-0.1,0-0.1,0C1819.5,25.4,1819.4,25.5,1819.4,25.5
		C1819.3,25.5,1819.4,25.5,1819.4,25.5z"/>
	<path d="M1819.4,25.5C1819.4,25.5,1819.4,25.5,1819.4,25.5C1819.4,25.5,1819.4,25.5,1819.4,25.5
		C1819.4,25.5,1819.4,25.5,1819.4,25.5z"/>
	<path d="M1727.4,27.2c-2.5,0.1-6.8,0.5-9.6,0.7c2.3,0,4.7,0,7.1,0c15.3,0.1,30.4,0.1,45.7-0.5c2-0.1,5.2-0.1,6.9,0
		c3,0.2,4,0.1,6.6-0.3c-3.6-0.7-6.2-0.7-10.2-0.5c-1.3,0.1-3.5-0.4-4.8,0.1c0,0,0,0-0.2,0c-0.2,0,0.7,0-0.6,0
		c-1.3,0-5.3,0.2-6.7,0.1c-1.4-0.1-1.2-0.9-2.5-1c-1.3-0.1-3.2,0.3-4.5,0.4c-0.1,0,0,0,0,0c0,0-0.1,0-0.1,0c-0.3,0-0.8,0-1.2,0
		c-0.4,0-0.9,0.1-1.3,0c-4.8-0.3-9.2-0.1-14,0.2c-3,0.2-6-0.4-8.5,0.5c-0.6-0.2-1.2-0.5-1.8-0.7c0.3,0.2,0.1,0.6,0.1,0.9
		C1727.6,27.2,1727.5,27.2,1727.4,27.2z"/>
	<path d="M1717.7,28c-2.7,0-5.4,0-8.1,0C1712.4,28.2,1715,28.1,1717.7,28z"/>
	<path d="M1865.9,20.5C1865.9,20.5,1865.9,20.5,1865.9,20.5C1865.8,20.6,1866,20.6,1865.9,20.5z"/>
	<path d="M1819,25.5c0.1,0,0.5-0.1,0.5-0.1C1819.5,25.4,1819.1,25.4,1819,25.5C1819,25.5,1818.9,25.5,1819,25.5z"/>
	<path d="M1819.5,25.5C1819.5,25.5,1819.5,25.5,1819.5,25.5C1819.5,25.5,1819.5,25.5,1819.5,25.5c0.4-0.1,1.6-0.3,1.8-0.4
		c0.2-0.1,0.1,0,0,0c-0.2,0-1.4,0.2-1.4,0.3c0.1,0.1,0,0,0,0c0,0,0,0,0,0c0,0,0,0,0,0c0,0,0,0,0,0c0,0,0,0,0,0c0,0-0.1,0-0.1,0
		c0,0,0.1,0,0.1,0C1819.7,25.4,1819.5,25.5,1819.5,25.5C1819.4,25.5,1819.4,25.5,1819.5,25.5C1819.4,25.5,1819.4,25.5,1819.5,25.5
		c-0.1,0-0.3,0.1-0.4,0.1c0,0,0.3-0.1,0.2,0c-0.1,0-0.1,0-0.3,0.1c-0.3,0.1,0.3-0.1-0.5,0.1C1817.7,25.9,1818.5,25.7,1819.5,25.5z"
		/>
	<path d="M1827.9,23.5c-0.1-0.1-0.8-0.1-0.8,0C1827.1,23.5,1827.9,23.6,1827.9,23.5z"/>
	<path d="M1826.8,23.4C1826.8,23.4,1826.8,23.4,1826.8,23.4C1826.8,23.4,1826.8,23.4,1826.8,23.4
		C1826.8,23.4,1826.8,23.4,1826.8,23.4C1826.8,23.4,1826.8,23.4,1826.8,23.4C1826.8,23.4,1826.8,23.4,1826.8,23.4c0,0,0.1,0,0.1,0
		C1827,23.4,1826.9,23.4,1826.8,23.4C1826.9,23.4,1826.9,23.4,1826.8,23.4C1826.9,23.4,1826.9,23.4,1826.8,23.4
		C1826.9,23.4,1826.8,23.4,1826.8,23.4z"/>
	<polygon points="1704,25.8 1703.4,26 1704.6,26.3 	"/>
	<path d="M1618.4,34.7c0.1,0,0.2,0,0.2,0C1618.5,34.7,1618.4,34.7,1618.4,34.7C1617.7,34.7,1618.1,34.7,1618.4,34.7z"/>
	<path d="M219.9,34.2C219.9,34.2,219.9,34.2,219.9,34.2C219.9,34.2,219.9,34.2,219.9,34.2C219.9,34.2,219.9,34.2,219.9,34.2z"/>
	<polygon points="1485.4,39.4 1485.4,39.4 1485.4,39.4 	"/>
	<path d="M1916.5,7.9c1.2,0,2.3-0.1,3.5-0.1V0H0v27.2c0.6,0,1.1,0,1.6,0c1.9,0,3.2,0,4.5,0c1.3,0,1.5,0,2.4,0c3.1,0,4.9,0.1,8.3,0.1
		c3.4,0,8.1,0.1,11.9,0.1c2,0,4.1,0,6.2,0.1c30.6,0.2,61.3,0.6,91.9,0.9c4.8,0,9.8,0.1,14.6,0.1c1.5,0,3.4,0,4.6,0
		c1.2,0,1.3,0,2.4,0c1,0,2.2,0,3.3,0c4,0,7.9,0,11.9,0c-1.1,0.1-0.4,0.3,0,0.3c0.5,0-0.1-0.2,0.3-0.3c0.4,0,0.8,0,1.5,0
		c0.7,0,1.7-0.1,2.6-0.1c4.6,0.1,9.4,0.3,14.1,0.2c1.5,0,3.1,0,4.6,0c-3.2,0.1-6.5,0.2-9.6,0.2c-0.9,0-1.7,0-2.4,0
		c-0.7,0-0.5,0.1-1.3,0c-0.7-0.1-1.5-0.2-2.5-0.3c-1-0.2-5.2,0-5.2,0.3c0,0,0,0.1,0,0.1c-0.2,0,0,0-0.3,0c-0.3,0-0.8,0.1-1.3,0.1
		c-2.4,0-4.7,0.1-7.3,0.1c-5,0-10.2-0.2-15.1,0.2c-20.7,0.2-41.4,0.4-62.1,0.5c-2.5,0.7-5.7,0.6-7.2,1.9c27.2,0.3,54.2,0.6,81.5,0.8
		c0.7,0.9-1,0.5-4.3,0.4c-1.8,0-9.5,0.2-12.2,0.6c9,0.4,18.4,0.4,27.5,0.2c0,0,0,0,0,0c0,0,0,0,0.1,0c0.2,0.1-0.3-0.1,0.4,0.1
		c0.7,0.2,2.4,1,3,1.3c0.1,0,0.1,0.1,0.1,0.1c0.2,0,0.6,0,1.4,0c2.7,0.1,8.9-0.2,12.5,0c3.6,0.1,7.1,1,10.4-0.1c0,0,0,0,0,0
		c-0.1,0.1,0.4,0,0.2-0.1c-0.1,0-0.1,0-0.1,0c0.1,0,0.1-0.1,1-0.3c3.3-0.6,8.6-0.6,12.8-0.8c0.1,0,2.8,0,3,0
		c3.2,0.7,7.8,0.1,10.1-0.2c0.2,0,0.3,0,0.4,0c-0.2,0-0.3,0,0,0c0.3,0,0,0,0,0c0,0,0,0,0,0c0,0,0,0,0.1,0c0.4,0-1,0.1,0.7,0
		c1.7-0.2,7.5-0.6,9.4,0c3.1,1,5.4,0.8,8.7,0.8c3.3,0,7.7,0,10.5-0.1c4.4-0.2-3.6-0.9,3.5-0.5c7.1,0.3,12.7,0.4,19.6,0.2
		c0,0,0,0,0,0c0.6,0.1,3.8,0.6,4.5,0.5c4.6-0.7,11.5-0.6,15.4-0.6c3.9,0,3.6,0,6-0.7c0.2-0.1-0.1,0,0,0c3.3-0.6,6.3-0.6,9.8-0.7
		c1,0,2.4,0,3.4-0.2c4.8-0.7,3.3-1.1-1.3-1.4c-2.9-0.1-8.6,0.4-11.4-0.5c22.4-0.2,45-0.4,67.4-0.4c1.6,0,3.4,0,4.9,0.1
		c0.6,0-0.2,0.6,0.1,0.7c16.2,0.2,32.5,0.5,48.8,0.7c-0.6,0-1.1,0.1-1.7,0.2c4.8,0.1,9.9,0.1,14.7,0.2c-0.2,0-0.3-0.2-0.6-0.2
		c7,0.1,14,0.2,20.9,0.2c0.7-0.8,5.3-0.7,7.5-0.7c2.1,0,5.9-0.3,8.1,0c1.8,0.2,3,0.9,4.8,1.1c-6.6-0.1-13.3-0.2-19.8-0.1
		c-0.8,0-1.9,0-2.4,0c-0.1,0-0.1,0-0.2,0c-3-0.3-5.7-0.3-8.8-0.3c-3.1,0-6.4,0-9.6,0c0.9,0,1.4,0.7,1.7,0.8c0.3,0.1,0.1,0,0.3,0
		c0.1,0,0,0,0.1,0c0.2,0.1,0.2,0.3,0.4,0.3c1.4,0.5,7.3,0.7,8,0.7c0.2,0,0.4,0,0.5,0c0,0,0,0,0,0c0,0,0,0,0,0c0.1,0,0.1,0,0.1,0
		c2.1,0.5,6.3,0.2,7.7,0.1c0.1,0,0.1,0,0.2,0c0,0,0.1,0,0.2,0c0.1,0,0,0,0,0c1.9,0.2,3.6,0.5,5.3-0.1c0.1,0,0,0,0,0c0,0,0,0,0,0
		c0,0,0,0,0,0c0,0,0,0,0,0c0,0,0.1,0,0.2,0c0.4,0,1.7,0,2.1,0c0.1,0,0.1,0,0.2,0c0,0,0,0,0.2,0c0.5,0.1,2.2,0.3,2.7,0.3
		c0.1,0,0.2,0,0.2,0c0,0-0.1,0-0.1,0c0,0,0,0,0,0c0,0,0,0,0,0c0,0,0,0-0.2,0.1c-0.4,0.2-1.9,0.8,0,0.8c-1.8,0.1-3.6,0.1-5.3,0.1
		c4.9,0.1,9.7,0.2,14.6,0.6c-2.1-0.1-3.9-0.2-6,0.1c2.1,0.1,4.2,0.1,6.3,0.3c-3.3,0-6.7-0.2-9.9-0.2c0.9,0,1,0.4-0.4,0.5
		c-1.4,0.1-4.2-0.1-5.9-0.1c-1.7,0-3.8,0-4.2,0.7c-0.2,0.3,1.3,0.4,1.9,0.4c0.6,0,4.6,0.1,2.4,0.5c-2.1,0.3-6.8-0.1-7.3,0.6
		c0,0,0,0,0,0.1c-0.2,0.1-0.2,0-0.6,0c-2.2-0.1-5.8-0.3-7.8,0c-2,0.3-3.7,0.7-1.3,1.4c3.7,1,7.5,1.2,12.5,1.4
		c2.9,0.1,7.8,0.5,10.2-0.9c0.6-0.4,3-0.2,4.1-0.1c6.7,0.4,11.9,0.4,18.5-0.7c4.8-0.8,10.9-1.1,16.1-1.2c5.2-0.1,9.8,0,14.8,0
		c14.5,0,28.1,0.1,42.6-1.1c1.5-0.1,4.2-0.1,6.4-0.1c8.1,0,16.6-0.1,24.8,0.5c2,0.1,4.3,0,6.2-0.1c7.8-0.4,16.9-0.6,24.3-0.7
		c5.4-0.1,8.2,0.8,13.1,0.8c5,0,9.9-0.5,15-0.2c1.7,0.1,3.8,0.1,5.3,0.4c1.4,0.2,1.8,1.2,3,1.5c0.5-0.8-0.4-1.1-2-1.5
		c5.3,0,10.6-0.2,15.8-0.6c0.9-0.1,1.8-0.1,2.4-0.1c0.6,0,0.5,0.3,1,0.3c0.5,0,0.5-0.4,1-0.4c3.1-0.2,6.8,0,10,0.2
		c-0.5,0-1.1,0-1.6,0c1.1,0.4,3,0.5,5.3,0.5c14.1-0.2,27.8,0,41.6,0c0.7,0.1,1.4,0.1,2,0.1c2.1,0.1,2.3,0.1,2-0.1c1.7,0,3.4,0,5.1,0
		c6.4,0,12.6,0.1,18.9,0.2c3.3,0.1,6.7,0.1,10.4,0.1c0.6,0,1.2,0,1.8,0c2.8,0,5.6,0,8.4,0c5.7,0,11.6,0.1,17.2,0.2
		c3.3,0,6.6,0,10-0.1c7.8,0.3,15.8,0.4,24.6-0.3c2.9-0.2,5.5-0.2,7,0.2c3.2,0.9,7.8,0.1,12,0c-1-1.1-5.2-1.1-9.7-1
		c-6.2,0.1-12.2,0-18.3,0c13.7-1.1,27.4-1.3,41.6-1.4c1.4,0,2.9,0,4.3,0c-0.3,0.1-0.6,0.2-1,0.3c0.7,0,1.5,0.1,2,0.1
		c0.6-0.1,1.3-0.3,1.3-0.4c3.3-0.1,6.6-0.2,9.9-0.4c1.8-0.1,3.8,0,5.4-0.1c0.4,0-1.1,0.3-0.8,0.3c0.2,0,0.5,0,0.8,0
		c-0.7,0.2-1,0.4-0.3,0.5c2.9,0.4,0.6,1.4,2.6,1.8c1.6,0,3.1,0,4.7,0c0,0,0,0,0,0c0,0,0,0,0,0c3.8-0.1,7.6,0.2,11.2-0.7l-0.1,0
		c-3.2-1.1-11-0.9-14.4-1.9c0.9,0,2,0,2.5,0.1c0.7,0.1,1,0.3,1.3,0.3c0.4,0,0.2-0.3,0.5-0.3c2.4,0.1,5.8,0.4,7.9,0.7
		c2.1,0.3,4.7,0.5,6.1,0c2.5-1,5.4-0.7,7.9-0.3c2.5,0.4,2.8,0.3,4.9,0.1c2-0.3,3.1,0,5,0c3.8-0.1,6.6-0.1,10.7-0.2
		c0.7,0,1.5,0,2.3,0c-3.2,0.1-6.4,0.2-9.6,0.3c1.8,0.7,5.7,0.6,9.1,0.5c4.1-0.2,8.2-0.2,12.3-0.3c0,0.4,0,0.7,0,1.1
		c-3.1,0.1-6.3,0.1-9.4,0.3c-0.3,0.3-0.5,1,0.8,0.9c2.7-0.2,5.6-0.9,8.6-0.9c0,0.9,0.1,1.9,0.1,2.8c1.5-0.1,2.7,0.3,4.2,0.3
		c2.3,0,4.5-0.5,6.4,0.4c3-0.2,6.2-0.7,9-0.9c0.9-0.1,0.7,0.5,0.7,0.7c2.9-0.1,6,0.1,8.8,0.1c1.5,0,3-0.7,4.2-0.7
		c1.2,0,3.2,0.1,1.8,0.5c7.8-0.4,15.6-1.1,23.4-1.5c3.2-1.3,6.7-0.8,10.7-0.5c-0.2,0-0.7-0.2-0.9-0.4c0.2,0,0.3,0,0.5,0
		c-0.1-0.1-0.2-0.2-0.4-0.3c0.1,0,0.1,0,0.2,0c3.1,0,6.3,0.2,9.5,0.1c0.5,0,1,0.1,1.6,0.1c-0.2,0.3-0.8,0.5-1.4,0.8
		c2.4-0.1,4.8-0.1,7.2-0.2c-1.2-0.1-2.4-0.2-3.6-0.4c2.2,0.1,4.6,0.1,6.9,0.1c0,0.1,0.1,0.1,0.2,0.1c1.3,0,2.6-0.1,3.9-0.2
		c2.1,0,4.2-0.1,6.3-0.1c4.3,0.1,8.6,0.2,13,0.3c-0.8,0.1-1.2,0.2-0.5,0.5c1.4,0.5,3.4,0.1,4.6,0.1c1,0,2.5-0.2,2.5-0.5
		c5.2,0.1,10.6,0,16-0.1c-3.2,0.5-6.9,0.5-10.3,0.4c3.8,0.2,7.3,0.3,10.7-0.4c1,0,2.1,0,3.1,0c0,0,0,0,0,0c0,0,0,0,0,0
		c5.2,0,10.4,0.1,15.6,0.1c-0.3,0.1-0.8,0.2-1.3,0.3c1.6,0.1,2.8-0.2,4.2-0.3c0.7,0,1.5,0,2.2,0c0.9,0.1,1.7,0.3,2.4,0.4
		c-1.2,0-2.4,0-3.5,0.2c3.2,0,6.2,0.1,9.3,0.5c7.9-0.2,15.5-0.3,23.5-0.4c1.9,0,3,0,5.4-0.2c2.4-0.2,6.6-0.5,9.3-0.5
		c2.8,0,4.7,0.1,7.6-0.2c-0.1,0-0.2,0-0.3,0c-0.6,0.1,0.3,0,0.4,0c0,0,0,0,0,0c0.3,0,0.5-0.1,1.1-0.1c3.8,0,7.6,0.2,11.5-0.4
		c0,0,0,0,0,0c0.7,0,1.4,0,2.2-0.1c0,0,0,0,0,0c6,0,12.1,0,18.1-0.1c3.7,0.1,13.4,0,18.7-0.1c2.7-0.1,9.1-0.1,12.1,0.3
		c-2.4-0.3-5.5,0.5-7.9,0c-2.4-0.5-10.1,0.2-10.2,0.4c-0.1,0.1-0.1,0.2-0.1,0.2c0,0,0,0,0,0c-0.1,0.1,0,0,0,0c-2.8,0-5.5,0-8.3,0.1
		c-0.1,0-0.2,0-0.5,0c-2.4-0.2-5.3,0-7.6,0.1c-1.2,0.1-1.9-0.2-2.8,0.1c-0.2,0.1,0.2,0-0.3,0c-0.5,0.1-2,0-2.4,0c-0.1,0-0.1,0-0.1,0
		c0,0-0.1,0-0.8-0.1c-1.5-0.1-5.5-0.4-7.2,0.2c0,0-0.6-0.1,0,0.1c0.6,0.2-1.6-0.3,0.8,0.4c2.5,0.7,9.8,0.4,13.5-0.2
		c2.2-0.4,5.7-0.2,8.2-0.2c0.1,0,0,0.1,0.3,0c0.4,0,2-0.3,2.4-0.1c0,0,0,0,0,0c0.1,0,0.3,0,0.6,0c2,0,2.7,0.1,6.6-0.1
		c6-0.2,18.1-0.5,24.7-0.4c4.5,0.1,7.7,0.2,11.4,0.2c10.8-0.2,20.8-0.5,31.4-0.5c2,0,3.5,0.2,5.4-0.1c1.9-0.3,3.2,0.6,5.2-0.2
		c0.2-0.1,0-0.3,1.6-0.5c4.7-0.8,13.5-0.6,18.5,0.6c0.2,0.1,0.1-0.1,0.2-0.1c0.1,0,0,0,0,0c1.1-0.1,3.3,0.1,4.1-0.1
		c0.9-0.3,0.8-0.2,1.8-0.3c0.7,0,0.9,0.2,1.7,0.2c1.6,0,3.5,0.1,5.1,0c4-0.2,8.4-0.2,12.3-0.2c2.3,0,4.1-0.3,6.2-0.3
		c15.2,0.1,30.4,0.2,45.6,0.3c1.4,0,2.9,0.1,4.3,0.1c18.5,0,36.9,0,55.4,0.2c16.9,0.1,34-0.4,50.9-0.6c15.5-0.2,31-0.7,46.5-0.8
		c0,0,0.1,0,0.2,0.1c0.2,0.2,0.2,0.8-0.3,1c-0.1,0-0.1,0-0.1,0c0,0-0.1,0-0.3,0c-0.8,0.1,2.3-0.1-2,0.2c-4.2,0.3-12.9,0.4-19.1,0.7
		c-8.4,0.3-19.1,1.1-27.8,1c-0.5,0-1.4-0.3-1.4-0.3s-2.5-0.4-2.9-0.3c0,0-0.1,0-0.2,0c-0.1,0,0.1,0,0.1,0c0,0,0,0,0,0
		c-0.7-0.2-2.8-0.3-2.9,0c0,0,0,0,0,0c-0.1,0-0.7,0-2.1-0.1c-5.4-0.2-13.7-0.2-20.9,0.1c-5.6,0.2-14.7-0.1-21-0.2
		c-2,0-3.8,0.3-5.9,0.3c-3.8,0-7.2-0.7-10.7,0.3c-0.1,0,0.2-0.1-0.2,0c-0.4,0.1-1.6-0.1-2.1-0.1c-1.7-0.1-3.8,0.3-5.3,0.1
		c-0.1,0-0.1,0-0.1,0c0,0,0,0,0,0c0,0,0.1,0,0.1,0c0,0,0,0,0,0c0,0,0,0,0,0.1c0.1,0.2,0.2,0.1,0.5,0.4c0.3,0.3,2.6,0.7,3.3,0.6
		c0.6-0.1,0.1,0,0.1,0c0.2,0,0.1,0,0.1,0c0.7,0.2,2.4,0.1,2.9,0c0.3,0,0.3,0,0.3,0c0,0,0,0,0.1,0c19.1,0.3,38.2,0,57.4-0.3
		c0,0,0,0,0,0c0.1,0-0.3,0,0.1,0c0.4,0.1,1.4-0.1,1.9,0c0.5,0.1,0.1,0.2,0.9,0.3c3.4,0.7,7.8,0.1,11.6-0.2
		c5.9-0.4,11.8-0.5,18.1-0.4c20.4,0.3,39.4,2.1,58.9-1.3c0.1,0,0.3,0,0.5,0c1.9,0.1-3.6-0.2,2.6,0.1c9.7,0.5,25-0.5,35.5-1.2
		c7.9-0.5,14.9-0.1,22.5-0.8c-8.2-0.6-15.1-1.6-22.6,0.4c0,0,0,0,0,0c0,0-0.1,0-0.2,0c0.3,0,0.3,0-2.4,0c-6.5,0-20.4,0.3-27.5,0.5
		c-4.8,0.1-3.6,0-6.1-1c-0.1,0,0.3,0,0.1,0c-0.2-0.1,0.4,0.1-0.2-0.1c-0.7-0.1-2.9-0.1-3.3-0.5c6.8-0.2,13.5-0.2,20.2-0.8
		c0,0,0,0,0.1,0c0.2,0-0.1,0,0.4,0c7.3-0.5,15.8-0.7,23-0.8c1.4,0,0.6,0,1.6,0c0.2,0,0,0,0.3,0c0.3,0,0,0,0.3,0c0.1,0,0.1,0,0.2,0
		c0,0,0,0,0,0c0.2,0,0.3,0,0.6-0.1c2.4-0.2,12.1-1.4,15.8-1.8c-2.3-0.1-5.9,0.1-8.2,0.2c-2.3,0.1-4-0.1-6.1-0.1
		c-7.8,0-15.5,0.1-23.3,0.3c2.3-0.1,4.5-0.3,6.7-0.5c0.6-0.1,1-0.4,1.6-0.4c16.6-0.2,34.1-0.4,50.6-0.7c16.4-0.3,31.8-0.3,48.1-0.4
		c8.7-0.1,17.6,0,26.4,0.2c2.6,0.1,5.1-0.2,7.8-0.1c0.2,0,0.3,0,0.8,0c4.1,0.2,8.7,0.1,12.9,0c0.2,0,0.1,0,0.1,0c0.1,0,0,0,0,0
		c0.7,0,1.3-0.1,2,0c0.7,0.1,3.1,0.2,3.1,0c0,0,0-0.1,0-0.1c0.9-0.7,2.2-1.2,3.8-1.6c-11.1,0.1-22.2,0.3-33.4,0.3
		c-29.3,0-58.6-0.1-87.9,0.2c-14.5,0.1-28.9-0.1-43.4,0.6c-0.3,0-0.6,0-0.9,0c-10.4-0.3-19.8-0.4-30.4,0.1
		c-6.8,0.3-15.2,0.3-22.1,0.3c-2,0-1.1,0-1.6-0.6c4.4,0,8.7,0.1,13.1,0c15.4-0.5,30.7-1,46.2-1.3c19.2-0.4,38.6-0.6,57.9-0.8
		c9.3-0.1,18.8,0,28-0.3c0.8,0,1.9-0.1,2.3-0.1c0.1,0,0.1,0,0.2,0c0,0,0,0,0,0c0,0,0,0,0,0c0,0,0,0,0,0c0,0,0,0,0,0c0,0,0,0,0,0
		c3.2,0.2,5.6,0.2,9,0.2c3.4,0,7.6-0.1,11.2-0.1c-1.7-0.1-3.3-0.4-4.7-0.8c-0.2,0-0.1,0-0.2,0c-0.1,0,0,0-0.1,0
		c-0.3-0.1-0.6-0.2-0.8-0.3c-1.6-1.1-8.3-1-8.7-0.8c-0.2,0.1-0.3,0.1-0.4,0.2c0,0,0,0,0,0c0,0,0,0,0,0c0,0,0,0,0,0c-0.1,0,0,0,0,0
		c-0.1,0-0.1,0-0.3-0.1c-1-0.2-6.4-0.1-7.3,0.1c-1.1,0.3,0.1,0-0.3,0.1c0,0,0,0,0,0c0,0,0,0,0,0c-0.1,0-0.2,0-0.4-0.1
		c-0.2-0.1-1.3-0.1-1.3-0.2c0-0.2,0.9-0.5,1.8-0.5c5.4,0.3,12.1,0.2,17.4,0c5.3-0.2,8.2-0.1,12.9,0.6c1.5-0.2,2.5-0.6,3.7-1
		c10.8-0.4,21.6-0.2,32.4-0.4c6.6-0.1,13.1-1,19.7-1.2c-0.8,0.3-1.9,0.4-2.9,0.6c9-0.3,18-0.5,27-0.3c1.4-0.7,3.4-1,5.3-1.5
		c-6.6,0-13-0.1-19.6-0.7c3.3,0,6.6,0.1,9.9-0.1c-10.9-0.1-21.7,0.4-32.5,0.8c-0.1-0.2,0.1-0.4,0.5-0.6c-4.8-0.1-9.2,0.6-14,0.6
		c-12.3,0.2-24.7,0.1-37,0.6c10.5-0.7,21-1.4,31.4-2.1c22.8-0.2,45.4-1,68.1-1.9c-0.1,0.1,0.2,0-0.1,0.2c-0.3,0.1-1.7,0.3-2.1,0.4
		c-0.4,0.1-0.5,0.2-0.2,0.4c0.4,0.1,0.1,0.1,0.9,0.2c0.8,0.1,2,0.3,3.5,0.5c1.4,0.2,4.2,0.5,5.9,0.8c0.1,0,0.1,0,0.2,0
		c0.1,0,0.5,0.1,0.8,0.2c0.3,0.1,0.6,0.1,0.8,0.3c0.3,0.1,0.8,0.3,1,0.5c0,0,0,0,0,0c0,0,0,0,0,0c0,0,0,0,0,0c0,0,0,0,0,0
		c0,0,0,0,0,0c-0.1,0-0.1,0,0,0c0,0-0.1,0-0.2,0.1c-0.8,1,2.2,1.8,2.4,1.2c0-0.1,0-0.1,0-0.1v0c0,0,0,0,0,0c0,0,0,0,0,0c0,0,0,0,0,0
		c0,0,0,0,0,0c0,0,0,0,0,0c1.4-0.2,3.1-0.3,4.4-0.5c0.3,0-0.4-0.3-0.3-0.3c0.1-0.1,0,0,0,0c0,0,0,0,0,0c0.1,0-0.4,0.1,0.6-0.1
		c1-0.2,4.3-0.8,5.7-1.1c0.1,0-0.1,0,0.3,0c0.4,0,1.3,0,1.9,0c0.7-0.1,1.1-0.3,1.8-0.5c2.2-0.6,4.1-1,7-0.9c2.9,0.1,6,0.3,9.1,0.5
		c4.7,0.4,9.1,1.2,13.2-0.4c0.1,0-0.2,0,0.6-0.2s4.3,0.1,5.5,0.4c4.8,0.9,8.6,0.7,13.1-0.1c4.6-0.8,8.6-1.3,12.2-2.6
		c0.1,0-0.2-0.1-0.3-0.1c-2.1,0-5.6,0.2-7.4,0.2c-1.8,0-2.2-0.3-3.5-0.3c-0.1,0-0.1,0-0.1,0c0.1,0,0.1-0.1,0.1-0.2
		c0-0.3,2.2-0.7,2.7-0.9c0.5-0.2-0.3-0.6-1.1-0.5c-5.3,0.1-9.3-0.5-14.9-0.4c-9,0.2-19.3,0.6-28.5,0.9c-5.2,0.2-9.7,0.4-14.9,1.1
		c-5.2,0.7-10.7,0.7-16.2,0.4c-0.4,0-1.4-0.1-1.5-0.1c0,0-0.1-0.3,0.7-0.2c0.8,0.1,4.1,0.3,5.4,0.3c1.1-0.9-1.3-0.8,2.9-0.9
		c0.7,0,1.3-0.3,0.1-0.4c-1.2-0.1-2.9-0.8-4.4-0.7c-5.5,0.2-10.7,0.4-16.1-0.3c-1-0.1-2.7-0.2-3.3-0.2c-0.6,0-0.3-0.1-0.4-0.2
		c-0.1-0.1-0.5-0.4-0.2-0.4c3.5,0,7.5,0.1,11.2,0c0,0,0,0,0,0c0,0,0,0,0.1,0c0.3,0.1-0.6-0.1,0.3,0.1c0.9,0.2,3,0.4,4.5,0.4
		c11.1-0.1,22.3-0.1,33.4-0.4c0.7,0,1.3,0,2.1,0c2.3,0.1,4,0,6.5,0c2.5,0,5.7,0.1,8.4,0c0.1,0,0,0,0,0c0,0,0,0,0,0c0,0,0,0,0,0
		c0,0,0,0,0,0c0,0,0.1,0,0.2,0c0.5,0,1.2,0,1.8,0c3.4,0,7,0,10.5,0c0,0,0,0,0,0c0,0,0,0,0,0c0.1,0-0.3-0.1,0.4,0
		c0.6,0.1,3.2,0.1,3.7,0c0.1,0,0.1,0,0.1,0c0,0,0,0,0,0c0.1,0,0.2,0,0.2,0c0,0,0.1,0,0.4,0c0.8,0,2.6,0,3.8,0c1.2,0,2.8,0,4.1,0
		c3.4,0,7,0,10.4,0c0.8,0,1.3,0.1,2.2,0c0,0,0,0,0,0c0,0,0,0,0.2,0c0.3,0,1.3,0,1.9,0c0.6,0,1.5-0.2,2.1-0.2c0.7,0,1.3-0.1,2,0
		c2.6,0.2,5.3,0.2,7.9,0c0.2,0,0.3,0,0.4,0c0.2,0,0.2,0,0.4,0c1.4,0,2.8,0,4.3,0V8c-0.8,0-1.6,0-2.4,0c-1.7,0.2-2.9,0.7-4,1.2h0
		C1914,8.6,1915.5,8.3,1916.5,7.9z M177.8,33.5c-0.8,0.1-1-0.1-2.3-0.2c-1.3,0-4.8-0.2-6.2-0.2c-1.5,0-2.6,0.1-3.7,0.1
		c-0.3,0,0-0.3,0.3-0.3c4.5,0,9.4,0,14.1,0C179,32.9,178.6,33.4,177.8,33.5z M250.8,32.4c-13.6,0.1-27.1,0.1-40.7,0.4
		c-1,0-1.9,0.2-3,0.2c-2.7,0-5.3-0.1-8.1-0.3c6.2-0.1,10.8-0.1,17.3-0.2c6.5-0.1,14.4-0.7,21.5-0.9c2.2-0.1,4.8-0.1,7.2-0.1
		c10.8-0.2,21.9-0.3,32.8-0.4c0.9,0,1.6,0.1,2.5,0.1C270.5,31.8,260.7,32.3,250.8,32.4z M448.9,39.1c3,0.4,5.8,0.4,9,0.4
		C454.7,39.7,451.9,39.7,448.9,39.1z M468.6,36.8c-0.1,0-0.3-0.1-0.3-0.1c0.1,0,1.3,0.1,1.3,0.1C469.7,36.9,468.8,36.9,468.6,36.8z
		 M508.7,32.6c2.7,0,5.4,0,8.1,0c-0.2,0.2-0.3,0.3,0.1,0.4c-8.4-0.1-16.9-0.1-25.3-0.2C497.3,32.7,503,32.6,508.7,32.6z M492.5,34.8
		c0.2-0.2,0.3-0.3,0.4-0.4c4.7,0,9.6-0.3,14.1-0.1c4.5,0.1,8.5,0.4,12.8,0.4c0.2,0-0.1,0.1-0.2,0.1c-8.9,0.3-17.8,0.5-26.8,0.5
		c-0.5,0-1,0-1.5,0C491.9,35.1,492.3,35,492.5,34.8z M577,36.4c-0.1,0-1.3,0-1.9,0c-13.4,0-26.9,0.1-40.2,1.1
		c-1.5,0.1-3.2,0.1-4.6,0.1c-1.4,0-1.8-0.1-3.3-0.1c-1.5,0-4.6-0.1-6.1-0.2c-1.5-0.1-2-0.1-3.3-0.1c-1.2,0-1.6,0.1-2.9,0.2
		c-1.3,0.1-2.6,0.5-4.4,0.4c-4.1-0.1-7.2-0.9-11.6-1.1c-6.8-0.2-14.6-0.1-21.7,0c7-0.4,12.5-0.7,20-0.8c7.5-0.1,17-0.2,25-0.5
		c0.7,0,1.4,0,2.1,0.1c0.7,0.1,1.4,0.1,2.2,0.2c2.1,0.1,4.1,0.3,6.3,0.3c0.4,0,0.9,0,1.3,0c0.4,0,0.7,0.2,1.2,0.2
		c0.5,0,1-0.2,1.6-0.2c5.1,0,10.2,0.1,15.4,0.1c5.1,0,10.3-0.1,15.4-0.1c2.7,0,5.5,0.1,8.2,0.1C576,36.2,577.1,36.4,577,36.4z
		 M589.3,36.4c-2.3,0-5.2,0-7.4,0c-0.1,0-0.4-0.1,0.3-0.2c0.7-0.1,3.8,0,4.9,0c1.1,0,2.5,0.2,3.2,0.2
		C590.5,36.3,589.6,36.4,589.3,36.4z M765.5,36.9c-2.3,0-4.7-0.1-7.1-0.1c1.3-0.3,2.7-0.6,4.1-0.8c3.6,0.5,6.6,0.4,10.2,0
		c1.7,0.6,3.9,0.7,6,1C774.3,37,769.9,36.9,765.5,36.9z M996,37.4C995.9,37.4,995.9,37.4,996,37.4c0-0.1,1.1-0.6,1.3-0.6
		C997.4,36.9,996.5,37.4,996,37.4z M1057.6,38.1c2.8-0.1,5.7-0.2,8.5-0.4c1.3-0.1,2.5,0.1,3.7,0.3
		C1065.7,38.1,1061.7,38.1,1057.6,38.1z M1079.6,37.9c-2.8,0-5.7,0.1-8.5,0.1c-0.5-0.1-1.3-0.3-1.1-0.3c0.6,0,11.4,0.6,9.5-0.1
		c1.3,0.1,2.5,0.1,3.7,0.2C1082.4,37.8,1081.3,37.9,1079.6,37.9z M1130.5,35.6c-0.3-0.1,1.3-0.3,1.9-0.3c0.6,0,2.6,0.1,3.3,0.2
		C1134.2,35.6,1131.4,35.9,1130.5,35.6z M1577.2,33.6c0,0,0.6,0,0.9,0c3.8-0.1,7.8-0.2,11.5-0.2c-3,0.1-10,0.2-12.1,0.2
		C1575.9,33.6,1577.2,33.6,1577.2,33.6z M1609.8,27.2c-0.2,0,0.4-0.1,0.6-0.1c0.2,0,2.3,0,2.2,0C1612.5,27.1,1610,27.2,1609.8,27.2z
		 M1646.9,26.9c-0.1,0-0.3,0-0.9,0c-3.4,0-8.8,0.4-12.9,0.3c-0.9,0-2.3-0.1-3.3-0.1c6.1-0.2,11.6-0.3,17.8-0.5
		c8.1-0.2,16.8-0.3,25.1-0.4c0.2,0,0.3,0.1,0.4,0.1C1664.4,26.5,1655.6,26.7,1646.9,26.9z M1681.8,26.6
		C1681.8,26.6,1681.8,26.6,1681.8,26.6C1681.8,26.6,1681.8,26.6,1681.8,26.6C1681.7,26.6,1681.7,26.6,1681.8,26.6
		C1681.7,26.6,1681.7,26.6,1681.8,26.6c-0.1,0-0.1,0-0.2,0c-0.4,0-1.7,0-2.2,0c-0.2,0,0.1,0-0.4,0c-0.5,0-2.5-0.2-2.9-0.2
		c-0.2,0-0.2,0-0.2,0c0,0,0,0,0,0c0,0,0,0,0,0c0,0,0,0,0,0c0,0,0,0,0,0c0,0,0,0,0,0c0,0,0,0,0,0c0,0,0,0,0,0c0,0,0,0,0,0
		c0,0,0,0,0,0c0,0,0,0,0,0c0,0,0,0,0,0c2,0,4.5,0,6.4,0C1682.5,26.3,1681.7,26.5,1681.8,26.6z M1865.6,19.5c1.1-0.1,3.8-0.5,4.7-0.5
		c0.9-0.1,1.5-0.2,1.8-0.2c0.4,0,0.6,0.4,0.6,0.5c0,0.7-2,0.2-3.5,0.2c-1.5,0-3.7,0.1-5.1,0.6C1864.1,19.6,1864.5,19.6,1865.6,19.5z
		 M1832.6,19.1c-2.3,0.5-4.1,1.3-6.3,1.9c-0.5,0.1-0.4,0.4-0.1,0.4c0.1,0,0.1,0,0.1,0c0,0,0,0,0,0c0,0,0,0,0,0c0,0,0,0,0,0
		c-0.9-0.2-0.6-0.4,0.2-0.7C1822.9,19.2,1829.8,19.2,1832.6,19.1z M1815.2,16.7c0.1,0,0.6,0,0.5,0c0,0-0.9,0.2-0.9,0.2
		C1814.7,16.8,1815.1,16.7,1815.2,16.7z"/>
	<path d="M220,34.2C220.4,34.1,220.2,34.1,220,34.2L220,34.2z"/>
	<path d="M451.4,32.6C451.3,32.6,451.4,32.6,451.4,32.6C451.3,32.6,451.3,32.6,451.4,32.6C451.3,32.6,451.3,32.6,451.4,32.6
		C451.4,32.6,451.4,32.6,451.4,32.6C451.3,32.6,451.4,32.6,451.4,32.6z"/>
	<path d="M518.9,33C518.9,33,518.9,33,518.9,33C518.9,33,518.9,33,518.9,33c0.2,0,0.8,0,0.8,0C519.6,33,518.9,33,518.9,33
		C518.8,33,518.9,33,518.9,33z"/>
	<path d="M493,34.4C492.9,34.4,492.9,34.4,493,34.4C492.8,34.5,492.7,34.6,493,34.4C492.9,34.4,492.9,34.4,493,34.4z"/>
	<path d="M989.3,38.4C989.2,38.4,989.2,38.4,989.3,38.4c0.1,0,0.6,0,0.6,0S989.3,38.4,989.3,38.4z"/>
	<path d="M1128.7,35.9C1128.7,35.9,1128.7,35.8,1128.7,35.9C1128.7,35.8,1128.7,35.9,1128.7,35.9z"/>
	<path d="M1208.1,39.4c-0.1,0-0.5,0-0.5,0C1207.7,39.4,1209.1,39.4,1208.1,39.4z"/>
	<path d="M1485.4,39.4C1485.4,39.4,1485.4,39.4,1485.4,39.4C1485.4,39.4,1485.4,39.4,1485.4,39.4
		C1485.4,39.4,1485.4,39.4,1485.4,39.4C1485.4,39.4,1485.4,39.4,1485.4,39.4C1485.3,39.4,1485.3,39.4,1485.4,39.4
		C1485.4,39.4,1485.4,39.4,1485.4,39.4C1485.4,39.4,1485.4,39.4,1485.4,39.4C1485.4,39.4,1485.3,39.4,1485.4,39.4
		C1485.4,39.4,1485.3,39.4,1485.4,39.4C1485.4,39.4,1485.4,39.4,1485.4,39.4C1485.4,39.4,1485.4,39.4,1485.4,39.4
		C1485.4,39.4,1485.4,39.4,1485.4,39.4C1485.4,39.4,1485.4,39.4,1485.4,39.4z"/>
	<polygon points="1485.4,39.4 1485.4,39.4 1485.4,39.4 1485.4,39.4 	"/>
	<path d="M1485.4,39.4C1485.4,39.4,1485.4,39.4,1485.4,39.4C1485.4,39.4,1485.4,39.4,1485.4,39.4
		C1485.4,39.4,1485.4,39.4,1485.4,39.4C1485.4,39.4,1485.4,39.4,1485.4,39.4z"/>
	<path d="M1757.6,31.2C1757.6,31.2,1757.6,31.2,1757.6,31.2C1757.6,31.2,1757.6,31.2,1757.6,31.2
		C1757.6,31.2,1757.6,31.2,1757.6,31.2z"/>
	<path d="M1826.4,21.5C1826.4,21.5,1826.4,21.5,1826.4,21.5C1826.5,21.5,1826.4,21.5,1826.4,21.5
		C1826.6,21.5,1826.4,21.5,1826.4,21.5z"/>
	<polygon points="1822.3,23.9 1822.4,23.9 1822.3,23.9 	"/>
	<path d="M1822.3,23.9C1822.3,23.9,1822.3,23.9,1822.3,23.9C1822.3,23.9,1822.3,23.9,1822.3,23.9
		C1822.3,23.9,1822.3,23.9,1822.3,23.9z"/>
	<path d="M1812,14.8c0,0-0.2,0-0.2,0C1811.8,14.8,1811.9,14.8,1812,14.8C1812,14.8,1812,14.8,1812,14.8z"/>
	<path d="M877.6,36.9c-4.1,0.1-9.1,0-12.8,1c-0.4,0.1,0.3,0.3,0.4,0.5c5.2,0,10.3-0.1,15.5-0.1C881.5,37.6,880.7,36.9,877.6,36.9z"
		/>
	<path d="M766.9,42.4c4.1,0.2,8.2,0.4,12.3,0.6C776.7,41.9,772.3,41.9,766.9,42.4z"/>
</g>
<g>
</g>
<g>
</g>
<g>
</g>
<g>
</g>
<g>
</g>
<g>
</g>
<g>
</g>
<g>
</g>
<g>
</g>
<g>
</g>
<g>
</g>
<g>
</g>
<g>
</g>
<g>
</g>
<g>
</g>
</svg>
